<svg viewBox="0 0 1300 980" xmlns="http://www.w3.org/2000/svg" role="img" aria-labelledby="t d" font-family="ui-sans-serif, system-ui, -apple-system, Segoe UI, Roboto, Helvetica, Arial, sans-serif">
  <title id="t">Production-Grade Microservices Platform on Azure</title>
  <desc id="d">Lane diagram for Online Boutique on AKS — Terraform IaC, Helm charts, ArgoCD GitOps, Azure DevOps CI/CD, per-env ACR + Key Vault, NGINX + cert-manager TLS, Prometheus/Grafana observability.</desc>

  <defs>
    <marker id="ar" viewBox="0 0 10 10" refX="9" refY="5" markerWidth="6" markerHeight="6" orient="auto-start-reverse">
      <path d="M0,0 L10,5 L0,10 z" fill="#9ca3af"/>
    </marker>
  </defs>

  <rect width="1300" height="980" fill="#ffffff"/>

  <text style="font-size:22px;font-weight:700;fill:#111827" x="650" y="40" text-anchor="middle">Production-Grade Microservices Platform on Azure</text>
  <text style="font-size:12px;fill:#6b7280" x="650" y="62" text-anchor="middle">Terraform IaC · Helm charts · ArgoCD GitOps · Azure DevOps CI/CD · Azure AKS · Online Boutique</text>

  <!-- ========== LANE 1: Source & CI/CD ========== -->
  <rect style="fill:#f6f6f4;stroke:#e5e7eb;stroke-width:1" rx="10" x="30" y="90" width="1240" height="200"/>
  <text style="font-size:11px;font-weight:600;fill:#6b7280;letter-spacing:0.04em" x="1255" y="110" text-anchor="end">Source &amp; CI/CD</text>

  <rect style="fill:#ffffff;stroke-width:1.4" rx="8" x="55" y="135" width="140" height="120" stroke="#1f2937"/>
  <text style="font-size:12.5px;font-weight:700;fill:#111827" x="70" y="160">Developer</text>
  <text style="font-size:10.5px;fill:#6b7280" x="70" y="180">git push / PR</text>
  <text style="font-size:10.5px;fill:#6b7280" x="70" y="196">main branch</text>
  <text style="font-size:10.5px;fill:#6b7280" x="70" y="220">protected refs</text>

  <rect style="fill:none;stroke:#e5e7eb;stroke-width:1" rx="10" x="220" y="115" width="560" height="160"/>
  <rect rx="6" x="232" y="105" width="120" height="20" fill="#1f2937"/>
  <text style="font-size:10.5px;font-weight:700;fill:#ffffff" x="292" y="119" text-anchor="middle">Azure DevOps CI</text>

  <rect style="fill:#ffffff;stroke-width:1.4" rx="8" x="240" y="145" width="160" height="115" stroke="#2563eb"/>
  <rect rx="6" x="248" y="137" width="120" height="18" fill="#2563eb"/>
  <text style="font-size:10.5px;font-weight:700;fill:#ffffff" x="308" y="150" text-anchor="middle">validate · plan</text>
  <text style="font-size:12.5px;font-weight:700;fill:#111827" x="252" y="180">terraform / helm</text>
  <text style="font-size:10.5px;fill:#6b7280" x="252" y="198">fmt · validate</text>
  <text style="font-size:10.5px;fill:#6b7280" x="252" y="214">helm lint · template</text>
  <text style="font-size:10.5px;fill:#6b7280" x="252" y="230">terraform plan</text>
  <text style="font-size:10.5px;fill:#6b7280" x="252" y="246">artifact: tfplan</text>

  <rect style="fill:#ffffff;stroke-width:1.4" rx="8" x="410" y="145" width="160" height="115" stroke="#16a34a"/>
  <rect rx="6" x="418" y="137" width="116" height="18" fill="#16a34a"/>
  <text style="font-size:10.5px;font-weight:700;fill:#ffffff" x="476" y="150" text-anchor="middle">security scan</text>
  <text style="font-size:12.5px;font-weight:700;fill:#111827" x="422" y="180">Trivy · tfsec</text>
  <text style="font-size:10.5px;fill:#6b7280" x="422" y="198">image CVE (HIGH/CRIT)</text>
  <text style="font-size:10.5px;fill:#6b7280" x="422" y="214">blocking on main</text>
  <text style="font-size:10.5px;fill:#6b7280" x="422" y="230">advisory on branches</text>
  <text style="font-size:10.5px;fill:#6b7280" x="422" y="246">runs at validate stage</text>

  <rect style="fill:#ffffff;stroke-width:1.4" rx="8" x="580" y="145" width="180" height="115" stroke="#ea580c"/>
  <rect rx="6" x="588" y="137" width="148" height="18" fill="#ea580c"/>
  <text style="font-size:10.5px;font-weight:700;fill:#ffffff" x="662" y="150" text-anchor="middle">build · push · promote</text>
  <text style="font-size:12.5px;font-weight:700;fill:#111827" x="592" y="180">image &amp; promotion</text>
  <text style="font-size:10.5px;fill:#6b7280" x="592" y="198">docker build · push (dev)</text>
  <text style="font-size:10.5px;fill:#6b7280" x="592" y="214">PR: bump digest in gitops/</text>
  <text style="font-size:10.5px;fill:#6b7280" x="592" y="230">az acr import → stage/prod</text>
  <text style="font-size:10.5px;fill:#6b7280" x="592" y="246">manual approval to prod</text>

  <rect style="fill:#ffffff;stroke-width:1.4" rx="8" x="800" y="135" width="220" height="120" stroke="#db2777"/>
  <rect rx="6" x="808" y="127" width="160" height="18" fill="#db2777"/>
  <text style="font-size:10.5px;font-weight:700;fill:#ffffff" x="888" y="140" text-anchor="middle">Workload Identity Fed</text>
  <text style="font-size:12.5px;font-weight:700;fill:#111827" x="812" y="170">CI auth to Azure</text>
  <text style="font-size:10.5px;fill:#6b7280" x="812" y="188">no PATs · no client secrets</text>
  <text style="font-size:10.5px;fill:#6b7280" x="812" y="204">AAD OIDC federation</text>
  <text style="font-size:10.5px;fill:#6b7280" x="812" y="220">scoped service connections</text>
  <text style="font-size:10.5px;fill:#6b7280" x="812" y="236">env-restricted variable groups</text>
  <text style="font-size:10.5px;fill:#6b7280" x="812" y="252">tenant + subscription pinned</text>

  <rect style="fill:#ffffff;stroke-width:1.4" rx="8" x="1040" y="135" width="200" height="120" stroke="#475569"/>
  <rect rx="6" x="1048" y="127" width="124" height="18" fill="#475569"/>
  <text style="font-size:10.5px;font-weight:700;fill:#ffffff" x="1110" y="140" text-anchor="middle">approval &amp; gate</text>
  <text style="font-size:12.5px;font-weight:700;fill:#111827" x="1052" y="170">Operator</text>
  <text style="font-size:10.5px;fill:#6b7280" x="1052" y="188">reviews tfplan</text>
  <text style="font-size:10.5px;fill:#6b7280" x="1052" y="204">approves apply job</text>
  <text style="font-size:10.5px;fill:#6b7280" x="1052" y="220">approves prod GitOps PR</text>
  <text style="font-size:10.5px;fill:#6b7280" x="1052" y="236">triggers ArgoCD sync (prod)</text>

  <!-- ========== LANE 2: Orchestration & State ========== -->
  <rect style="fill:#f6f6f4;stroke:#e5e7eb;stroke-width:1" rx="10" x="30" y="310" width="1240" height="180"/>
  <text style="font-size:11px;font-weight:600;fill:#6b7280;letter-spacing:0.04em" x="1255" y="330" text-anchor="end">Orchestration &amp; State</text>

  <rect style="fill:#ffffff;stroke-width:1.4" rx="8" x="100" y="355" width="270" height="115" stroke="#7c3aed"/>
  <rect rx="6" x="108" y="347" width="78" height="18" fill="#7c3aed"/>
  <text style="font-size:10.5px;font-weight:700;fill:#ffffff" x="147" y="360" text-anchor="middle">Terraform</text>
  <text style="font-size:12.5px;font-weight:700;fill:#111827" x="112" y="390">infra/terraform</text>
  <text style="font-size:10.5px;fill:#6b7280" x="112" y="408">modules: network · aks · acr · kv</text>
  <text style="font-size:10.5px;fill:#6b7280" x="112" y="424">backend: azurerm → blob</text>
  <text style="font-size:10.5px;fill:#6b7280" x="112" y="440">envs: shared · dev · stage · prod</text>
  <text style="font-size:10.5px;fill:#6b7280" x="112" y="456">version-pinned providers</text>

  <rect style="fill:#ffffff;stroke-width:1.4" rx="8" x="430" y="355" width="280" height="115" stroke="#0d9488"/>
  <rect rx="6" x="438" y="347" width="68" height="18" fill="#0d9488"/>
  <text style="font-size:10.5px;font-weight:700;fill:#ffffff" x="472" y="360" text-anchor="middle">ArgoCD</text>
  <text style="font-size:12.5px;font-weight:700;fill:#111827" x="442" y="390">GitOps controller</text>
  <text style="font-size:10.5px;fill:#6b7280" x="442" y="408">app-of-apps · per-env Project</text>
  <text style="font-size:10.5px;fill:#6b7280" x="442" y="424">Helm values overlays: dev/stage/prod</text>
  <text style="font-size:10.5px;fill:#6b7280" x="442" y="440">auto-sync (dev) · manual (prod)</text>
  <text style="font-size:10.5px;fill:#6b7280" x="442" y="456">watches gitops/ in mono-repo</text>

  <rect style="fill:#ffffff;stroke-width:1.4" rx="8" x="770" y="355" width="240" height="115" stroke="#f59e0b"/>
  <rect rx="6" x="778" y="347" width="180" height="18" fill="#f59e0b"/>
  <text style="font-size:10.5px;font-weight:700;fill:#ffffff" x="868" y="360" text-anchor="middle">NGINX Ingress + cert-manager</text>
  <text style="font-size:12.5px;font-weight:700;fill:#111827" x="782" y="390">Ingress → Public IP</text>
  <text style="font-size:10.5px;fill:#6b7280" x="782" y="408">runs in ingress-nginx ns</text>
  <text style="font-size:10.5px;fill:#6b7280" x="782" y="424">Let&apos;s Encrypt · DNS-01</text>
  <text style="font-size:10.5px;fill:#6b7280" x="782" y="440">wildcard certs per env</text>
  <text style="font-size:10.5px;fill:#6b7280" x="782" y="456">force HTTP → HTTPS</text>

  <rect style="fill:#ffffff;stroke-width:1.4" rx="8" x="1060" y="345" width="180" height="135" stroke="#0d9488"/>
  <rect rx="6" x="1068" y="337" width="92" height="18" fill="#0d9488"/>
  <text style="font-size:10.5px;font-weight:700;fill:#ffffff" x="1114" y="350" text-anchor="middle">remote state</text>
  <text style="font-size:12.5px;font-weight:700;fill:#111827" x="1072" y="380">Azure Storage</text>
  <text style="font-size:10.5px;fill:#6b7280" x="1072" y="396">stboutiquetfstateweu</text>
  <text style="font-size:12.5px;font-weight:700;fill:#111827" x="1072" y="420">Blob versioning</text>
  <text style="font-size:10.5px;fill:#6b7280" x="1072" y="436">soft-delete enabled</text>
  <text style="font-size:12.5px;font-weight:700;fill:#111827" x="1072" y="460">SSE</text>
  <text style="font-size:10.5px;fill:#6b7280" x="1072" y="476">AES-256 at rest</text>

  <!-- ========== LANE 3: IaC Modules & Helm Charts ========== -->
  <rect style="fill:#f6f6f4;stroke:#e5e7eb;stroke-width:1" rx="10" x="30" y="510" width="1240" height="170"/>
  <text style="font-size:11px;font-weight:600;fill:#6b7280;letter-spacing:0.04em" x="1255" y="530" text-anchor="end">IaC Modules &amp; Helm Charts</text>

  <rect style="fill:none;stroke:#e5e7eb;stroke-width:1" rx="10" x="60" y="555" width="580" height="110"/>
  <text style="font-size:11px;font-weight:600;fill:#6b7280" x="75" y="572">Terraform modules · provisioned by apply</text>

  <rect style="fill:#ffffff;stroke-width:1.4" rx="8" x="80" y="590" width="125" height="60" stroke="#7c3aed"/>
  <rect rx="6" x="88" y="582" width="56" height="16" fill="#7c3aed"/>
  <text style="font-size:10.5px;font-weight:700;fill:#ffffff" x="116" y="594" text-anchor="middle">module</text>
  <text style="font-size:12.5px;font-weight:700;fill:#111827" x="92" y="618">networking</text>
  <text style="font-size:10.5px;fill:#6b7280" x="92" y="634">VNet · NSG · PIP · pDNS</text>

  <rect style="fill:#ffffff;stroke-width:1.4" rx="8" x="220" y="590" width="125" height="60" stroke="#7c3aed"/>
  <rect rx="6" x="228" y="582" width="56" height="16" fill="#7c3aed"/>
  <text style="font-size:10.5px;font-weight:700;fill:#ffffff" x="256" y="594" text-anchor="middle">module</text>
  <text style="font-size:12.5px;font-weight:700;fill:#111827" x="232" y="618">AKS cluster</text>
  <text style="font-size:10.5px;fill:#6b7280" x="232" y="634">node pools · OIDC · WI</text>

  <rect style="fill:#ffffff;stroke-width:1.4" rx="8" x="360" y="590" width="125" height="60" stroke="#7c3aed"/>
  <rect rx="6" x="368" y="582" width="56" height="16" fill="#7c3aed"/>
  <text style="font-size:10.5px;font-weight:700;fill:#ffffff" x="396" y="594" text-anchor="middle">module</text>
  <text style="font-size:12.5px;font-weight:700;fill:#111827" x="372" y="618">ACR (×3)</text>
  <text style="font-size:10.5px;fill:#6b7280" x="372" y="634">env-scoped · PE</text>

  <rect style="fill:#ffffff;stroke-width:1.4" rx="8" x="500" y="590" width="125" height="60" stroke="#7c3aed"/>
  <rect rx="6" x="508" y="582" width="56" height="16" fill="#7c3aed"/>
  <text style="font-size:10.5px;font-weight:700;fill:#ffffff" x="536" y="594" text-anchor="middle">module</text>
  <text style="font-size:12.5px;font-weight:700;fill:#111827" x="512" y="618">KV (×3) + DNS</text>
  <text style="font-size:10.5px;fill:#6b7280" x="512" y="634">secrets · LA · biroltilki.art</text>

  <rect style="fill:none;stroke:#e5e7eb;stroke-width:1" rx="10" x="660" y="555" width="580" height="110"/>
  <text style="font-size:11px;font-weight:600;fill:#6b7280" x="675" y="572">Helm charts · reconciled by ArgoCD</text>

  <rect style="fill:#ffffff;stroke-width:1.4" rx="8" x="680" y="590" width="170" height="60" stroke="#2563eb"/>
  <rect rx="6" x="688" y="582" width="40" height="16" fill="#2563eb"/>
  <text style="font-size:10.5px;font-weight:700;fill:#ffffff" x="708" y="594" text-anchor="middle">Helm</text>
  <text style="font-size:12.5px;font-weight:700;fill:#111827" x="692" y="618">platform stack</text>
  <text style="font-size:10.5px;fill:#6b7280" x="692" y="634">nginx · cert-mgr · ext-dns · CSI</text>

  <rect style="fill:#ffffff;stroke-width:1.4" rx="8" x="865" y="590" width="190" height="60" stroke="#2563eb"/>
  <rect rx="6" x="873" y="582" width="40" height="16" fill="#2563eb"/>
  <text style="font-size:10.5px;font-weight:700;fill:#ffffff" x="893" y="594" text-anchor="middle">Helm</text>
  <text style="font-size:12.5px;font-weight:700;fill:#111827" x="877" y="618">online-boutique  v0.10.4</text>
  <text style="font-size:10.5px;fill:#6b7280" x="877" y="634">11 services + redis-cart</text>

  <rect style="fill:#ffffff;stroke-width:1.4" rx="8" x="1070" y="590" width="160" height="60" stroke="#2563eb"/>
  <rect rx="6" x="1078" y="582" width="40" height="16" fill="#2563eb"/>
  <text style="font-size:10.5px;font-weight:700;fill:#ffffff" x="1098" y="594" text-anchor="middle">Helm</text>
  <text style="font-size:12.5px;font-weight:700;fill:#111827" x="1082" y="618">kube-prom-stack</text>
  <text style="font-size:10.5px;fill:#6b7280" x="1082" y="634">Prometheus + Grafana</text>

  <!-- ========== LANE 4: Azure + K8s target ========== -->
  <rect style="fill:#f6f6f4;stroke:#e5e7eb;stroke-width:1" rx="10" x="30" y="700" width="1240" height="220"/>
  <text style="font-size:11px;font-weight:600;fill:#6b7280;letter-spacing:0.04em" x="1255" y="720" text-anchor="end">Azure + Kubernetes target infrastructure</text>

  <rect style="fill:none;stroke:#e5e7eb;stroke-width:1" rx="10" x="60" y="745" width="580" height="160"/>
  <rect rx="6" x="76" y="737" width="86" height="18" fill="#f59e0b"/>
  <text style="font-size:10.5px;font-weight:700;fill:#ffffff" x="119" y="750" text-anchor="middle">Azure · weu</text>

  <rect style="fill:#ffffff;stroke-width:1.4" rx="8" x="80" y="775" width="265" height="55" stroke="#f59e0b"/>
  <text style="font-size:12.5px;font-weight:700;fill:#111827" x="92" y="797">VNet  10.20.0.0/22</text>
  <text style="font-size:10.5px;fill:#6b7280" x="92" y="813">subnets (AKS · PE) · NSG · pDNS zones</text>

  <rect style="fill:#ffffff;stroke-width:1.4" rx="8" x="80" y="840" width="265" height="55" stroke="#f59e0b"/>
  <text style="font-size:12.5px;font-weight:700;fill:#111827" x="92" y="862">AKS managed cluster</text>
  <text style="font-size:10.5px;fill:#6b7280" x="92" y="878">system + npdev + npstg + npprod (multi-AZ)</text>

  <rect style="fill:#ffffff;stroke-width:1.4" rx="8" x="360" y="775" width="265" height="55" stroke="#f59e0b"/>
  <text style="font-size:12.5px;font-weight:700;fill:#111827" x="372" y="797">ACR × 3  (dev / stage / prod)</text>
  <text style="font-size:10.5px;fill:#6b7280" x="372" y="813">private endpoints · digest-pinned promotion</text>

  <rect style="fill:#ffffff;stroke-width:1.4" rx="8" x="360" y="840" width="125" height="55" stroke="#f59e0b"/>
  <text style="font-size:12.5px;font-weight:700;fill:#111827" x="372" y="862">Key Vault × 3</text>
  <text style="font-size:10.5px;fill:#6b7280" x="372" y="878">RBAC · purge prod</text>

  <rect style="fill:#ffffff;stroke-width:1.4" rx="8" x="500" y="840" width="125" height="55" stroke="#f59e0b"/>
  <text style="font-size:12.5px;font-weight:700;fill:#111827" x="512" y="862">Public IP + DNS</text>
  <text style="font-size:10.5px;fill:#6b7280" x="512" y="878">static · biroltilki.art</text>

  <rect style="fill:none;stroke:#e5e7eb;stroke-width:1" rx="10" x="660" y="745" width="580" height="160"/>
  <rect rx="6" x="676" y="737" width="118" height="18" fill="#0d9488"/>
  <text style="font-size:10.5px;font-weight:700;fill:#ffffff" x="735" y="750" text-anchor="middle">Kubernetes · in AKS</text>

  <rect style="fill:#ffffff;stroke-width:1.4" rx="8" x="680" y="775" width="270" height="55" stroke="#0d9488"/>
  <text style="font-size:12.5px;font-weight:700;fill:#111827" x="692" y="797">ns: dev · stage · prod</text>
  <text style="font-size:10.5px;fill:#6b7280" x="692" y="813">11 services · NetworkPolicy · PSS · Quotas</text>

  <rect style="fill:#ffffff;stroke-width:1.4" rx="8" x="965" y="775" width="265" height="55" stroke="#0d9488"/>
  <text style="font-size:12.5px;font-weight:700;fill:#111827" x="977" y="797">ns: monitoring</text>
  <text style="font-size:10.5px;fill:#6b7280" x="977" y="813">Prometheus scrape · Grafana dashboards</text>

  <rect style="fill:#ffffff;stroke-width:1.4" rx="8" x="680" y="840" width="270" height="55" stroke="#0d9488"/>
  <text style="font-size:12.5px;font-weight:700;fill:#111827" x="692" y="862">Ingress (class=nginx)</text>
  <text style="font-size:10.5px;fill:#6b7280" x="692" y="878">boutique.&lt;env&gt;.biroltilki.art · TLS</text>

  <rect style="fill:#ffffff;stroke-width:1.4" rx="8" x="965" y="840" width="265" height="55" stroke="#0d9488"/>
  <text style="font-size:12.5px;font-weight:700;fill:#111827" x="977" y="862">ns: argocd · ingress-nginx · cert-manager</text>
  <text style="font-size:10.5px;fill:#6b7280" x="977" y="878">GitOps · L7 ingress · ACME · external-dns</text>

  <!-- ========== EDGES ========== -->

  <!-- Developer → CI -->
  <path style="stroke:#9ca3af;stroke-width:1.2;fill:none" d="M195,200 L240,200" marker-end="url(#ar)"/>

  <!-- Variables → CI cards (inject) -->
  <path style="stroke:#9ca3af;stroke-width:1.2;fill:none;stroke-dasharray:4 4" d="M870,255 C 870,278 700,278 670,275" marker-end="url(#ar)"/>
  <text style="font-size:10px;font-weight:600" x="780" y="272" fill="#db2777" text-anchor="middle">inject WIF / OIDC</text>

  <!-- Operator → CI promote (approve) -->
  <path style="stroke:#9ca3af;stroke-width:1.2;fill:none;stroke-dasharray:4 4" d="M1140,127 C 1140,100 670,100 670,145" marker-end="url(#ar)"/>
  <text style="font-size:10px;font-weight:600" x="900" y="95" fill="#475569" text-anchor="middle">approve apply / sync prod</text>

  <!-- CI → Terraform (init/plan/apply) -->
  <path style="stroke:#9ca3af;stroke-width:1.2;fill:none" d="M670,260 C 670,310 235,310 235,355" marker-end="url(#ar)"/>
  <text style="font-size:10px;font-weight:600" x="380" y="305" fill="#7c3aed">terraform init / plan / apply</text>

  <!-- Terraform ↔ Storage (state) -->
  <path style="stroke:#9ca3af;stroke-width:1.2;fill:none" d="M235,355 C 235,318 1140,318 1140,345" marker-end="url(#ar)"/>
  <path style="stroke:#9ca3af;stroke-width:1.2;fill:none" d="M1140,348 C 1140,320 235,320 235,358" marker-end="url(#ar)"/>
  <text style="font-size:10px;font-weight:600" x="687" y="313" fill="#0d9488" text-anchor="middle">state read / write</text>

  <!-- ArgoCD watches Git -->
  <path style="stroke:#9ca3af;stroke-width:1.2;fill:none;stroke-dasharray:4 4" d="M570,355 C 570,300 540,300 540,275" marker-end="url(#ar)"/>
  <text style="font-size:10px;font-weight:600" x="475" y="328" fill="#0d9488">watches Git</text>

  <!-- Terraform → modules -->
  <path style="stroke:#9ca3af;stroke-width:1.2;fill:none" d="M235,470 L142,555" marker-end="url(#ar)"/>
  <path style="stroke:#9ca3af;stroke-width:1.2;fill:none" d="M235,470 L282,555" marker-end="url(#ar)"/>
  <path style="stroke:#9ca3af;stroke-width:1.2;fill:none" d="M235,470 L422,555" marker-end="url(#ar)"/>
  <path style="stroke:#9ca3af;stroke-width:1.2;fill:none" d="M235,470 L562,555" marker-end="url(#ar)"/>
  <text style="font-size:10px;font-weight:600" x="120" y="500" fill="#7c3aed">provisions</text>

  <!-- ArgoCD → Helm charts -->
  <path style="stroke:#9ca3af;stroke-width:1.2;fill:none" d="M570,470 C 570,510 760,510 760,580" marker-end="url(#ar)"/>
  <path style="stroke:#9ca3af;stroke-width:1.2;fill:none" d="M570,470 C 570,510 950,510 950,580" marker-end="url(#ar)"/>
  <path style="stroke:#9ca3af;stroke-width:1.2;fill:none" d="M570,470 C 570,510 1140,510 1140,580" marker-end="url(#ar)"/>
  <text style="font-size:10px;font-weight:600" x="710" y="500" fill="#0d9488">syncs charts</text>

  <!-- NGINX (orchestration card) → platform-stack chart -->
  <path style="stroke:#9ca3af;stroke-width:1.2;fill:none;stroke-dasharray:4 4" d="M870,470 C 870,510 760,510 760,580" marker-end="url(#ar)"/>

  <!-- Modules → Azure target resources (straight where possible to avoid crossings) -->
  <!-- networking → VNet (straight down) -->
  <path style="stroke:#9ca3af;stroke-width:1.2;fill:none" d="M140,650 L140,775" marker-end="url(#ar)"/>
  <!-- aks → AKS managed cluster (straight down, lands inside AKS card) -->
  <path style="stroke:#9ca3af;stroke-width:1.2;fill:none" d="M280,650 L280,840" marker-end="url(#ar)"/>
  <!-- acr → ACR ×3 (straight down) -->
  <path style="stroke:#9ca3af;stroke-width:1.2;fill:none" d="M420,650 L420,775" marker-end="url(#ar)"/>
  <!-- kv+dns → Public IP+DNS (straight down) -->
  <path style="stroke:#9ca3af;stroke-width:1.2;fill:none" d="M560,650 L560,840" marker-end="url(#ar)"/>
  <!-- kv+dns → KV ×3 (single curve to bottom-left card) -->
  <path style="stroke:#9ca3af;stroke-width:1.2;fill:none" d="M560,650 C 560,720 422,720 422,840" marker-end="url(#ar)"/>
  <text style="font-size:10px;font-weight:600" x="638" y="690" fill="#7c3aed" text-anchor="end">creates</text>

  <!-- Helm charts → K8s namespaces (cleaned routing) -->
  <!-- platform stack → ns:argocd · ingress-nginx · cert-manager (long curve, right) -->
  <path style="stroke:#9ca3af;stroke-width:1.2;fill:none" d="M765,650 C 765,760 1097,760 1097,840" marker-end="url(#ar)"/>
  <!-- online-boutique → ns:dev/stage/prod (top-left target) -->
  <path style="stroke:#9ca3af;stroke-width:1.2;fill:none" d="M960,650 C 960,710 815,710 815,775" marker-end="url(#ar)"/>
  <!-- online-boutique → Ingress (bottom-left target) -->
  <path style="stroke:#9ca3af;stroke-width:1.2;fill:none" d="M960,650 C 960,740 815,740 815,840" marker-end="url(#ar)"/>
  <!-- kube-prom → ns:monitoring (short curve) -->
  <path style="stroke:#9ca3af;stroke-width:1.2;fill:none" d="M1150,650 C 1150,710 1097,710 1097,775" marker-end="url(#ar)"/>
  <text style="font-size:10px;font-weight:600" x="1230" y="690" fill="#0d9488" text-anchor="end">deploys</text>

  <!-- Ingress → Public IP (short label) -->
  <path style="stroke:#9ca3af;stroke-width:1.2;fill:none;stroke-dasharray:4 4" d="M680,867 L630,867" marker-end="url(#ar)"/>
  <text style="font-size:10px;font-weight:600" x="690" y="830" fill="#f59e0b" text-anchor="start">Ingress → PIP</text>

  <!-- ========== Footer flow legend ========== -->
  <rect style="fill:#f6f6f4;stroke:#e5e7eb;stroke-width:1" rx="10" x="30" y="935" width="1240" height="38"/>
  <text style="font-size:11px;font-weight:600;fill:#6b7280;letter-spacing:0.04em" x="50" y="958">End-to-end flow</text>

  <circle cx="160" cy="955" r="5" fill="#1f2937"/>
  <text style="font-size:11px;fill:#111827" x="172" y="959">1. Push to main</text>

  <circle cx="280" cy="955" r="5" fill="#2563eb"/>
  <text style="font-size:11px;fill:#111827" x="292" y="959">2. CI validates + plans</text>

  <circle cx="442" cy="955" r="5" fill="#16a34a"/>
  <text style="font-size:11px;fill:#111827" x="454" y="959">3. Trivy / tfsec scan</text>

  <circle cx="600" cy="955" r="5" fill="#ea580c"/>
  <text style="font-size:11px;fill:#111827" x="612" y="959">4. Push ACR + acr import</text>

  <circle cx="790" cy="955" r="5" fill="#7c3aed"/>
  <text style="font-size:11px;fill:#111827" x="802" y="959">5. Modules build Azure</text>

  <circle cx="950" cy="955" r="5" fill="#0d9488"/>
  <text style="font-size:11px;fill:#111827" x="962" y="959">6. ArgoCD syncs Helm</text>

  <circle cx="1110" cy="955" r="5" fill="#f59e0b"/>
  <text style="font-size:11px;fill:#111827" x="1122" y="959">7. NGINX + Azure DNS → user</text>
</svg>
