<?xml version="1.0" encoding="UTF-8" standalone="no"?>
<!DOCTYPE svg PUBLIC "-//W3C//DTD SVG 1.1//EN"
 "http://www.w3.org/Graphics/SVG/1.1/DTD/svg11.dtd">
<!-- Generated by graphviz version 2.43.0 (0)
 -->
<!-- Title: cicd_flow Pages: 1 -->
<svg width="1078pt" height="382pt"
 viewBox="0.00 0.00 1078.00 382.12" xmlns="http://www.w3.org/2000/svg" xmlns:xlink="http://www.w3.org/1999/xlink">
<g id="graph0" class="graph" transform="scale(1 1) rotate(0) translate(4 378.12)">
<title>cicd_flow</title>
<polygon fill="white" stroke="transparent" points="-4,4 -4,-378.12 1074,-378.12 1074,4 -4,4"/>
<text text-anchor="start" x="383.5" y="-359.93" font-family="Helvetica,sans-Serif" font-weight="bold" font-size="14.00">Online Boutique on Azure — CI/CD flow</text>
<!-- dev -->
<g id="node1" class="node">
<title>dev</title>
<path fill="#eeeeee" stroke="black" d="M81,-351.12C81,-351.12 12,-351.12 12,-351.12 6,-351.12 0,-345.12 0,-339.12 0,-339.12 0,-313.12 0,-313.12 0,-307.12 6,-301.12 12,-301.12 12,-301.12 81,-301.12 81,-301.12 87,-301.12 93,-307.12 93,-313.12 93,-313.12 93,-339.12 93,-339.12 93,-345.12 87,-351.12 81,-351.12"/>
<text text-anchor="middle" x="46.5" y="-329.32" font-family="Helvetica,sans-Serif" font-size="11.00">Developer</text>
<text text-anchor="middle" x="46.5" y="-317.32" font-family="Helvetica,sans-Serif" font-size="11.00">(Cursor IDE)</text>
</g>
<!-- gh -->
<g id="node2" class="node">
<title>gh</title>
<path fill="#fff2b8" stroke="black" d="M294.5,-351.12C294.5,-351.12 232.5,-351.12 232.5,-351.12 226.5,-351.12 220.5,-345.12 220.5,-339.12 220.5,-339.12 220.5,-313.12 220.5,-313.12 220.5,-307.12 226.5,-301.12 232.5,-301.12 232.5,-301.12 294.5,-301.12 294.5,-301.12 300.5,-301.12 306.5,-307.12 306.5,-313.12 306.5,-313.12 306.5,-339.12 306.5,-339.12 306.5,-345.12 300.5,-351.12 294.5,-351.12"/>
<text text-anchor="middle" x="263.5" y="-329.32" font-family="Helvetica,sans-Serif" font-size="11.00">GitHub</text>
<text text-anchor="middle" x="263.5" y="-317.32" font-family="Helvetica,sans-Serif" font-size="11.00">mono&#45;repo</text>
</g>
<!-- dev&#45;&gt;gh -->
<g id="edge1" class="edge">
<title>dev&#45;&gt;gh</title>
<path fill="none" stroke="#444444" d="M93.1,-326.12C127.31,-326.12 174.23,-326.12 210.01,-326.12"/>
<polygon fill="#444444" stroke="#444444" points="210.26,-329.63 220.26,-326.12 210.26,-322.63 210.26,-329.63"/>
<text text-anchor="middle" x="152" y="-328.93" font-family="Helvetica,sans-Serif" font-size="9.00">git push</text>
</g>
<!-- ado -->
<g id="node3" class="node">
<title>ado</title>
<path fill="#fff2b8" stroke="black" d="M304,-211.12C304,-211.12 223,-211.12 223,-211.12 217,-211.12 211,-205.12 211,-199.12 211,-199.12 211,-173.12 211,-173.12 211,-167.12 217,-161.12 223,-161.12 223,-161.12 304,-161.12 304,-161.12 310,-161.12 316,-167.12 316,-173.12 316,-173.12 316,-199.12 316,-199.12 316,-205.12 310,-211.12 304,-211.12"/>
<text text-anchor="middle" x="263.5" y="-189.32" font-family="Helvetica,sans-Serif" font-size="11.00">Azure DevOps</text>
<text text-anchor="middle" x="263.5" y="-177.32" font-family="Helvetica,sans-Serif" font-size="11.00">CI + promote</text>
</g>
<!-- gh&#45;&gt;ado -->
<g id="edge2" class="edge">
<title>gh&#45;&gt;ado</title>
<path fill="none" stroke="#444444" d="M286.69,-301C306.24,-273.9 308.08,-246.8 292.21,-219.69"/>
<polygon fill="#444444" stroke="#444444" points="295.11,-217.74 286.72,-211.28 289.25,-221.57 295.11,-217.74"/>
<text text-anchor="middle" x="293.57" y="-229.99" font-family="Helvetica,sans-Serif" font-size="9.00">webhook</text>
</g>
<!-- argo -->
<g id="node8" class="node">
<title>argo</title>
<path fill="#cfe9c8" stroke="black" d="M766,-344.12C766,-344.12 703,-344.12 703,-344.12 697,-344.12 691,-338.12 691,-332.12 691,-332.12 691,-306.12 691,-306.12 691,-300.12 697,-294.12 703,-294.12 703,-294.12 766,-294.12 766,-294.12 772,-294.12 778,-300.12 778,-306.12 778,-306.12 778,-332.12 778,-332.12 778,-338.12 772,-344.12 766,-344.12"/>
<text text-anchor="middle" x="734.5" y="-322.32" font-family="Helvetica,sans-Serif" font-size="11.00">ArgoCD</text>
<text text-anchor="middle" x="734.5" y="-310.32" font-family="Helvetica,sans-Serif" font-size="11.00">(in cluster)</text>
</g>
<!-- gh&#45;&gt;argo -->
<g id="edge8" class="edge">
<title>gh&#45;&gt;argo</title>
<path fill="none" stroke="#008800" d="M306.53,-325.5C392.14,-324.22 586.52,-321.32 680.57,-319.91"/>
<polygon fill="#008800" stroke="#008800" points="680.77,-323.41 690.72,-319.76 680.66,-316.41 680.77,-323.41"/>
<text text-anchor="middle" x="499" y="-325.93" font-family="Helvetica,sans-Serif" font-size="9.00">watch gitops/</text>
</g>
<!-- ado&#45;&gt;gh -->
<g id="edge5" class="edge">
<title>ado&#45;&gt;gh</title>
<path fill="none" stroke="#444444" stroke-dasharray="1,5" d="M240.28,-211.28C220.75,-238.38 218.93,-265.49 234.81,-292.59"/>
<polygon fill="#444444" stroke="#444444" points="231.91,-294.55 240.31,-301 237.77,-290.72 231.91,-294.55"/>
<text text-anchor="middle" x="223.92" y="-284.13" font-family="Helvetica,sans-Serif" font-size="9.00">PR: bump digest</text>
</g>
<!-- trivy -->
<g id="node4" class="node">
<title>trivy</title>
<path fill="#fff2b8" stroke="black" d="M295.5,-68.12C295.5,-68.12 231.5,-68.12 231.5,-68.12 225.5,-68.12 219.5,-62.12 219.5,-56.12 219.5,-56.12 219.5,-30.12 219.5,-30.12 219.5,-24.12 225.5,-18.12 231.5,-18.12 231.5,-18.12 295.5,-18.12 295.5,-18.12 301.5,-18.12 307.5,-24.12 307.5,-30.12 307.5,-30.12 307.5,-56.12 307.5,-56.12 307.5,-62.12 301.5,-68.12 295.5,-68.12"/>
<text text-anchor="middle" x="263.5" y="-46.33" font-family="Helvetica,sans-Serif" font-size="11.00">Trivy</text>
<text text-anchor="middle" x="263.5" y="-34.33" font-family="Helvetica,sans-Serif" font-size="11.00">(vuln scan)</text>
</g>
<!-- ado&#45;&gt;trivy -->
<g id="edge3" class="edge">
<title>ado&#45;&gt;trivy</title>
<path fill="none" stroke="#444444" d="M263.5,-160.66C263.5,-137.75 263.5,-103.88 263.5,-78.38"/>
<polygon fill="#444444" stroke="#444444" points="267,-78.36 263.5,-68.36 260,-78.36 267,-78.36"/>
<text text-anchor="middle" x="255.5" y="-112.42" font-family="Helvetica,sans-Serif" font-size="9.00">scan</text>
</g>
<!-- acrs -->
<g id="node6" class="node">
<title>acrs</title>
<path fill="#cfe6ff" stroke="black" d="M541,-237.6C541,-240.24 522.17,-242.38 499,-242.38 475.83,-242.38 457,-240.24 457,-237.6 457,-237.6 457,-194.65 457,-194.65 457,-192.01 475.83,-189.87 499,-189.87 522.17,-189.87 541,-192.01 541,-194.65 541,-194.65 541,-237.6 541,-237.6"/>
<path fill="none" stroke="black" d="M541,-237.6C541,-234.97 522.17,-232.83 499,-232.83 475.83,-232.83 457,-234.97 457,-237.6"/>
<text text-anchor="middle" x="499" y="-213.32" font-family="Helvetica,sans-Serif" font-size="11.00">ACR stage</text>
</g>
<!-- ado&#45;&gt;acrs -->
<g id="edge6" class="edge">
<title>ado&#45;&gt;acrs</title>
<path fill="none" stroke="#0066cc" stroke-dasharray="5,2" d="M316.03,-192.75C354.87,-197.74 407.88,-204.55 446.66,-209.53"/>
<polygon fill="#0066cc" stroke="#0066cc" points="446.34,-213.02 456.7,-210.82 447.23,-206.07 446.34,-213.02"/>
<text text-anchor="middle" x="386.5" y="-207.93" font-family="Helvetica,sans-Serif" font-size="9.00">az acr import</text>
</g>
<!-- acrp -->
<g id="node7" class="node">
<title>acrp</title>
<path fill="#cfe6ff" stroke="black" d="M538,-142.6C538,-145.24 520.52,-147.38 499,-147.38 477.48,-147.38 460,-145.24 460,-142.6 460,-142.6 460,-99.65 460,-99.65 460,-97.01 477.48,-94.87 499,-94.87 520.52,-94.87 538,-97.01 538,-99.65 538,-99.65 538,-142.6 538,-142.6"/>
<path fill="none" stroke="black" d="M538,-142.6C538,-139.97 520.52,-137.83 499,-137.83 477.48,-137.83 460,-139.97 460,-142.6"/>
<text text-anchor="middle" x="499" y="-118.33" font-family="Helvetica,sans-Serif" font-size="11.00">ACR prod</text>
</g>
<!-- ado&#45;&gt;acrp -->
<g id="edge7" class="edge">
<title>ado&#45;&gt;acrp</title>
<path fill="none" stroke="#0066cc" stroke-dasharray="5,2" d="M316.03,-171.78C355.85,-160.69 410.58,-145.46 449.59,-134.6"/>
<polygon fill="#0066cc" stroke="#0066cc" points="450.96,-137.85 459.65,-131.8 449.08,-131.11 450.96,-137.85"/>
<text text-anchor="middle" x="386.5" y="-162.93" font-family="Helvetica,sans-Serif" font-size="9.00">az acr import</text>
</g>
<!-- acrd -->
<g id="node5" class="node">
<title>acrd</title>
<path fill="#cfe6ff" stroke="black" d="M535.5,-47.6C535.5,-50.24 519.14,-52.38 499,-52.38 478.86,-52.38 462.5,-50.24 462.5,-47.6 462.5,-47.6 462.5,-4.65 462.5,-4.65 462.5,-2.01 478.86,0.13 499,0.13 519.14,0.13 535.5,-2.01 535.5,-4.65 535.5,-4.65 535.5,-47.6 535.5,-47.6"/>
<path fill="none" stroke="black" d="M535.5,-47.6C535.5,-44.97 519.14,-42.83 499,-42.83 478.86,-42.83 462.5,-44.97 462.5,-47.6"/>
<text text-anchor="middle" x="499" y="-23.32" font-family="Helvetica,sans-Serif" font-size="11.00">ACR dev</text>
</g>
<!-- trivy&#45;&gt;acrd -->
<g id="edge4" class="edge">
<title>trivy&#45;&gt;acrd</title>
<path fill="none" stroke="#00aa77" d="M307.6,-39.99C348.66,-37 410.26,-32.51 452.2,-29.46"/>
<polygon fill="#00aa77" stroke="#00aa77" points="452.69,-32.93 462.41,-28.72 452.18,-25.95 452.69,-32.93"/>
<text text-anchor="middle" x="386.5" y="-39.92" font-family="Helvetica,sans-Serif" font-size="9.00">pass → push</text>
</g>
<!-- aks -->
<g id="node9" class="node">
<title>aks</title>
<path fill="#cfe9c8" stroke="black" d="M784,-190.12C784,-190.12 685,-190.12 685,-190.12 679,-190.12 673,-184.12 673,-178.12 673,-178.12 673,-152.12 673,-152.12 673,-146.12 679,-140.12 685,-140.12 685,-140.12 784,-140.12 784,-140.12 790,-140.12 796,-146.12 796,-152.12 796,-152.12 796,-178.12 796,-178.12 796,-184.12 790,-190.12 784,-190.12"/>
<text text-anchor="middle" x="734.5" y="-168.32" font-family="Helvetica,sans-Serif" font-size="11.00">AKS cluster</text>
<text text-anchor="middle" x="734.5" y="-156.32" font-family="Helvetica,sans-Serif" font-size="11.00">aks&#45;boutique&#45;weu</text>
</g>
<!-- acrd&#45;&gt;aks -->
<g id="edge10" class="edge">
<title>acrd&#45;&gt;aks</title>
<path fill="none" stroke="#444444" stroke-dasharray="5,2" d="M535.72,-47.39C575,-70.77 638.44,-108.54 682.85,-134.97"/>
<polygon fill="#444444" stroke="#444444" points="681.08,-137.99 691.46,-140.1 684.66,-131.98 681.08,-137.99"/>
<text text-anchor="middle" x="607" y="-106.92" font-family="Helvetica,sans-Serif" font-size="9.00">pull (dev)</text>
</g>
<!-- acrs&#45;&gt;aks -->
<g id="edge11" class="edge">
<title>acrs&#45;&gt;aks</title>
<path fill="none" stroke="#444444" stroke-dasharray="5,2" d="M541.21,-207.12C574.88,-199.77 623.25,-189.21 663.05,-180.51"/>
<polygon fill="#444444" stroke="#444444" points="663.95,-183.9 672.97,-178.35 662.45,-177.06 663.95,-183.9"/>
<text text-anchor="middle" x="607" y="-200.93" font-family="Helvetica,sans-Serif" font-size="9.00">pull (stage)</text>
</g>
<!-- acrp&#45;&gt;aks -->
<g id="edge12" class="edge">
<title>acrp&#45;&gt;aks</title>
<path fill="none" stroke="#444444" stroke-dasharray="5,2" d="M538.12,-123.26C564.86,-125.21 601.35,-128.79 633,-135.12 642.78,-137.08 652.97,-139.57 662.95,-142.28"/>
<polygon fill="#444444" stroke="#444444" points="662.26,-145.72 672.84,-145.05 664.15,-138.98 662.26,-145.72"/>
<text text-anchor="middle" x="607" y="-137.93" font-family="Helvetica,sans-Serif" font-size="9.00">pull (prod)</text>
</g>
<!-- argo&#45;&gt;aks -->
<g id="edge9" class="edge">
<title>argo&#45;&gt;aks</title>
<path fill="none" stroke="#008800" d="M734.5,-294.05C734.5,-268.66 734.5,-229.17 734.5,-200.58"/>
<polygon fill="#008800" stroke="#008800" points="738,-200.21 734.5,-190.21 731,-200.21 738,-200.21"/>
<text text-anchor="middle" x="726.5" y="-239.93" font-family="Helvetica,sans-Serif" font-size="9.00">sync manifests</text>
</g>
<!-- le -->
<g id="node12" class="node">
<title>le</title>
<path fill="#ffd9d9" stroke="black" d="M1058,-230.12C1058,-230.12 983,-230.12 983,-230.12 977,-230.12 971,-224.12 971,-218.12 971,-218.12 971,-204.12 971,-204.12 971,-198.12 977,-192.12 983,-192.12 983,-192.12 1058,-192.12 1058,-192.12 1064,-192.12 1070,-198.12 1070,-204.12 1070,-204.12 1070,-218.12 1070,-218.12 1070,-224.12 1064,-230.12 1058,-230.12"/>
<text text-anchor="middle" x="1020.5" y="-208.32" font-family="Helvetica,sans-Serif" font-size="11.00">Let&#39;s Encrypt</text>
</g>
<!-- aks&#45;&gt;le -->
<g id="edge15" class="edge">
<title>aks&#45;&gt;le</title>
<path fill="none" stroke="#444444" stroke-dasharray="5,2" d="M806.1,-176.56C853.78,-184.28 915.98,-194.36 960.91,-201.64"/>
<polygon fill="#444444" stroke="#444444" points="806.51,-173.08 796.08,-174.94 805.39,-179.99 806.51,-173.08"/>
<polygon fill="#444444" stroke="#444444" points="960.37,-205.09 970.8,-203.24 961.49,-198.18 960.37,-205.09"/>
<text text-anchor="middle" x="883.5" y="-198.93" font-family="Helvetica,sans-Serif" font-size="9.00">ACME DNS&#45;01</text>
</g>
<!-- user -->
<g id="node10" class="node">
<title>user</title>
<path fill="#eeeeee" stroke="black" d="M1046,-311.12C1046,-311.12 995,-311.12 995,-311.12 989,-311.12 983,-305.12 983,-299.12 983,-299.12 983,-285.12 983,-285.12 983,-279.12 989,-273.12 995,-273.12 995,-273.12 1046,-273.12 1046,-273.12 1052,-273.12 1058,-279.12 1058,-285.12 1058,-285.12 1058,-299.12 1058,-299.12 1058,-305.12 1052,-311.12 1046,-311.12"/>
<text text-anchor="middle" x="1020.5" y="-289.32" font-family="Helvetica,sans-Serif" font-size="11.00">End user</text>
</g>
<!-- dns -->
<g id="node11" class="node">
<title>dns</title>
<path fill="#cfe6ff" stroke="black" d="M1053.5,-149.12C1053.5,-149.12 987.5,-149.12 987.5,-149.12 981.5,-149.12 975.5,-143.12 975.5,-137.12 975.5,-137.12 975.5,-111.12 975.5,-111.12 975.5,-105.12 981.5,-99.12 987.5,-99.12 987.5,-99.12 1053.5,-99.12 1053.5,-99.12 1059.5,-99.12 1065.5,-105.12 1065.5,-111.12 1065.5,-111.12 1065.5,-137.12 1065.5,-137.12 1065.5,-143.12 1059.5,-149.12 1053.5,-149.12"/>
<text text-anchor="middle" x="1020.5" y="-127.33" font-family="Helvetica,sans-Serif" font-size="11.00">Azure DNS</text>
<text text-anchor="middle" x="1020.5" y="-115.33" font-family="Helvetica,sans-Serif" font-size="11.00">biroltilki.art</text>
</g>
<!-- user&#45;&gt;dns -->
<g id="edge13" class="edge">
<title>user&#45;&gt;dns</title>
<path fill="none" stroke="#444444" d="M982.83,-285.39C952.24,-277.72 911,-261.87 891,-230.12 866.78,-191.68 920.47,-160.65 965.93,-142.32"/>
<polygon fill="#444444" stroke="#444444" points="967.42,-145.5 975.47,-138.61 964.88,-138.97 967.42,-145.5"/>
<text text-anchor="middle" x="883.5" y="-222.93" font-family="Helvetica,sans-Serif" font-size="9.00">HTTPS</text>
</g>
<!-- dns&#45;&gt;aks -->
<g id="edge14" class="edge">
<title>dns&#45;&gt;aks</title>
<path fill="none" stroke="#444444" d="M975.17,-126.89C937.88,-129.59 883.23,-134.44 836,-142.12 826.26,-143.71 816.06,-145.68 806.04,-147.79"/>
<polygon fill="#444444" stroke="#444444" points="805.14,-144.41 796.11,-149.95 806.62,-151.25 805.14,-144.41"/>
<text text-anchor="middle" x="883.5" y="-144.93" font-family="Helvetica,sans-Serif" font-size="9.00">resolves to ingress IP</text>
</g>
</g>
</svg>
