<?xml version="1.0" encoding="UTF-8" standalone="no"?>
<!DOCTYPE svg PUBLIC "-//W3C//DTD SVG 1.1//EN"
 "http://www.w3.org/Graphics/SVG/1.1/DTD/svg11.dtd">
<!-- Generated by graphviz version 2.43.0 (0)
 -->
<!-- Title: azure_layout Pages: 1 -->
<svg width="1015pt" height="680pt"
 viewBox="0.00 0.00 1015.00 679.75" xmlns="http://www.w3.org/2000/svg" xmlns:xlink="http://www.w3.org/1999/xlink">
<g id="graph0" class="graph" transform="scale(1 1) rotate(0) translate(4 675.75)">
<title>azure_layout</title>
<polygon fill="white" stroke="transparent" points="-4,4 -4,-675.75 1011,-675.75 1011,4 -4,4"/>
<text text-anchor="start" x="272" y="-657.55" font-family="Helvetica,sans-Serif" font-weight="bold" font-size="14.00">Online Boutique on Azure — resource layout (West Europe)</text>
<g id="clust1" class="cluster">
<title>cluster_state</title>
<polygon fill="#f4f4f4" stroke="black" points="138,-523.38 138,-640.75 300,-640.75 300,-523.38 138,-523.38"/>
<text text-anchor="middle" x="219" y="-625.55" font-family="Helvetica,sans-Serif" font-size="14.00">rg&#45;tfstate&#45;weu</text>
</g>
<g id="clust2" class="cluster">
<title>cluster_shared</title>
<polygon fill="#eaf4ff" stroke="black" points="90,-8 90,-350 684,-350 684,-8 90,-8"/>
<text text-anchor="middle" x="387" y="-334.8" font-family="Helvetica,sans-Serif" font-size="14.00">rg&#45;boutique&#45;shared&#45;weu</text>
</g>
<g id="clust3" class="cluster">
<title>cluster_pools</title>
<polygon fill="white" stroke="black" stroke-dasharray="5,2" points="218,-16 218,-123 676,-123 676,-16 218,-16"/>
<text text-anchor="middle" x="447" y="-107.8" font-family="Helvetica,sans-Serif" font-size="14.00">Node pools</text>
</g>
<g id="clust4" class="cluster">
<title>cluster_dev</title>
<polygon fill="#eef9e8" stroke="black" points="24,-378 24,-495.38 309,-495.38 309,-378 24,-378"/>
<text text-anchor="middle" x="166.5" y="-480.18" font-family="Helvetica,sans-Serif" font-size="14.00">rg&#45;boutique&#45;dev&#45;weu</text>
</g>
<g id="clust5" class="cluster">
<title>cluster_stage</title>
<polygon fill="#fff7e0" stroke="black" points="317,-378 317,-495.38 619,-495.38 619,-378 317,-378"/>
<text text-anchor="middle" x="468" y="-480.18" font-family="Helvetica,sans-Serif" font-size="14.00">rg&#45;boutique&#45;stage&#45;weu</text>
</g>
<g id="clust6" class="cluster">
<title>cluster_prod</title>
<polygon fill="#ffe5e5" stroke="black" points="627,-378 627,-495.38 919,-495.38 919,-378 627,-378"/>
<text text-anchor="middle" x="773" y="-480.18" font-family="Helvetica,sans-Serif" font-size="14.00">rg&#45;boutique&#45;prod&#45;weu</text>
</g>
<!-- sa -->
<g id="node1" class="node">
<title>sa</title>
<path fill="#cfe6ff" stroke="black" d="M291.5,-602.78C291.5,-606.73 259.01,-609.94 219,-609.94 179,-609.94 146.5,-606.73 146.5,-602.78 146.5,-602.78 146.5,-538.35 146.5,-538.35 146.5,-534.4 179,-531.19 219,-531.19 259.01,-531.19 291.5,-534.4 291.5,-538.35 291.5,-538.35 291.5,-602.78 291.5,-602.78"/>
<path fill="none" stroke="black" d="M291.5,-602.78C291.5,-598.83 259.01,-595.62 219,-595.62 179,-595.62 146.5,-598.83 146.5,-602.78"/>
<text text-anchor="middle" x="219" y="-579.06" font-family="Helvetica,sans-Serif" font-size="10.00">Storage Account</text>
<text text-anchor="middle" x="219" y="-568.06" font-family="Helvetica,sans-Serif" font-size="10.00">stboutiquetfstateweu</text>
<text text-anchor="middle" x="219" y="-557.06" font-family="Helvetica,sans-Serif" font-size="10.00">(Terraform remote state)</text>
</g>
<!-- aks -->
<g id="node7" class="node">
<title>aks</title>
<path fill="#cfe9c8" stroke="black" d="M470,-216C470,-216 264,-216 264,-216 258,-216 252,-210 252,-204 252,-204 252,-171 252,-171 252,-165 258,-159 264,-159 264,-159 470,-159 470,-159 476,-159 482,-165 482,-171 482,-171 482,-204 482,-204 482,-210 476,-216 470,-216"/>
<text text-anchor="middle" x="367" y="-196" font-family="Helvetica,sans-Serif" font-size="10.00">AKS cluster</text>
<text text-anchor="middle" x="367" y="-185" font-family="Helvetica,sans-Serif" font-size="10.00">aks&#45;boutique&#45;weu</text>
<text text-anchor="middle" x="367" y="-174" font-family="Helvetica,sans-Serif" font-size="10.00">(AAD&#45;integrated, OIDC, Workload Identity)</text>
</g>
<!-- sa&#45;&gt;aks -->
<g id="edge23" class="edge">
<title>sa&#45;&gt;aks</title>
<path fill="none" stroke="#000000" stroke-dasharray="1,5" d="M146.19,-562.82C101.79,-554.52 48.29,-536.11 20,-495.38 -9.75,-452.53 -2.35,-425.13 20,-378 60.99,-291.59 160.16,-243.1 242.03,-216.86"/>
<polygon fill="#000000" stroke="#000000" points="243.42,-220.09 251.92,-213.77 241.34,-213.41 243.42,-220.09"/>
<text text-anchor="middle" x="77.5" y="-360.8" font-family="Helvetica,sans-Serif" font-size="9.00">(Terraform manages)</text>
</g>
<!-- vnet -->
<g id="node2" class="node">
<title>vnet</title>
<path fill="#cfe6ff" stroke="black" d="M612.5,-319C612.5,-319 471.5,-319 471.5,-319 465.5,-319 459.5,-313 459.5,-307 459.5,-307 459.5,-274 459.5,-274 459.5,-268 465.5,-262 471.5,-262 471.5,-262 612.5,-262 612.5,-262 618.5,-262 624.5,-268 624.5,-274 624.5,-274 624.5,-307 624.5,-307 624.5,-313 618.5,-319 612.5,-319"/>
<text text-anchor="middle" x="542" y="-299" font-family="Helvetica,sans-Serif" font-size="10.00">VNet 10.20.0.0/22</text>
<text text-anchor="middle" x="542" y="-288" font-family="Helvetica,sans-Serif" font-size="10.00">+ subnets (AKS, PE, Bastion)</text>
<text text-anchor="middle" x="542" y="-277" font-family="Helvetica,sans-Serif" font-size="10.00">+ NSG</text>
</g>
<!-- pdz -->
<g id="node3" class="node">
<title>pdz</title>
<path fill="#cfe6ff" stroke="black" d="M663.5,-216C663.5,-216 512.5,-216 512.5,-216 506.5,-216 500.5,-210 500.5,-204 500.5,-204 500.5,-171 500.5,-171 500.5,-165 506.5,-159 512.5,-159 512.5,-159 663.5,-159 663.5,-159 669.5,-159 675.5,-165 675.5,-171 675.5,-171 675.5,-204 675.5,-204 675.5,-210 669.5,-216 663.5,-216"/>
<text text-anchor="middle" x="588" y="-196" font-family="Helvetica,sans-Serif" font-size="10.00">Private DNS zones</text>
<text text-anchor="middle" x="588" y="-185" font-family="Helvetica,sans-Serif" font-size="10.00">privatelink.azurecr.io</text>
<text text-anchor="middle" x="588" y="-174" font-family="Helvetica,sans-Serif" font-size="10.00">privatelink.vaultcore.azure.net</text>
</g>
<!-- vnet&#45;&gt;pdz -->
<g id="edge11" class="edge">
<title>vnet&#45;&gt;pdz</title>
<path fill="none" stroke="#000000" d="M554.57,-261.9C559.7,-250.66 565.69,-237.49 571.18,-225.44"/>
<polygon fill="#000000" stroke="#000000" points="574.49,-226.62 575.45,-216.07 568.12,-223.72 574.49,-226.62"/>
<text text-anchor="middle" x="586.5" y="-236.8" font-family="Helvetica,sans-Serif" font-size="9.00">VNet link</text>
</g>
<!-- vnet&#45;&gt;aks -->
<g id="edge12" class="edge">
<title>vnet&#45;&gt;aks</title>
<path fill="none" stroke="#000000" d="M494.19,-261.9C472.39,-249.32 446.42,-234.33 423.65,-221.19"/>
<polygon fill="#000000" stroke="#000000" points="425.18,-218.03 414.77,-216.07 421.68,-224.1 425.18,-218.03"/>
<text text-anchor="middle" x="484" y="-236.8" font-family="Helvetica,sans-Serif" font-size="9.00">aks subnet</text>
</g>
<!-- pip -->
<g id="node4" class="node">
<title>pip</title>
<path fill="#cfe6ff" stroke="black" d="M429.5,-313.5C429.5,-313.5 304.5,-313.5 304.5,-313.5 298.5,-313.5 292.5,-307.5 292.5,-301.5 292.5,-301.5 292.5,-279.5 292.5,-279.5 292.5,-273.5 298.5,-267.5 304.5,-267.5 304.5,-267.5 429.5,-267.5 429.5,-267.5 435.5,-267.5 441.5,-273.5 441.5,-279.5 441.5,-279.5 441.5,-301.5 441.5,-301.5 441.5,-307.5 435.5,-313.5 429.5,-313.5"/>
<text text-anchor="middle" x="367" y="-293.5" font-family="Helvetica,sans-Serif" font-size="10.00">Public IP (static)</text>
<text text-anchor="middle" x="367" y="-282.5" font-family="Helvetica,sans-Serif" font-size="10.00">pip&#45;boutique&#45;ingress&#45;weu</text>
</g>
<!-- pip&#45;&gt;aks -->
<g id="edge13" class="edge">
<title>pip&#45;&gt;aks</title>
<path fill="none" stroke="#000000" d="M367,-257.03C367,-243.89 367,-228.88 367,-216.26"/>
<polygon fill="#000000" stroke="#000000" points="363.5,-257.08 367,-267.08 370.5,-257.08 363.5,-257.08"/>
<text text-anchor="middle" x="403" y="-236.8" font-family="Helvetica,sans-Serif" font-size="9.00">LoadBalancer IP</text>
</g>
<!-- azdns -->
<g id="node5" class="node">
<title>azdns</title>
<path fill="#cfe6ff" stroke="black" d="M262.5,-313.5C262.5,-313.5 183.5,-313.5 183.5,-313.5 177.5,-313.5 171.5,-307.5 171.5,-301.5 171.5,-301.5 171.5,-279.5 171.5,-279.5 171.5,-273.5 177.5,-267.5 183.5,-267.5 183.5,-267.5 262.5,-267.5 262.5,-267.5 268.5,-267.5 274.5,-273.5 274.5,-279.5 274.5,-279.5 274.5,-301.5 274.5,-301.5 274.5,-307.5 268.5,-313.5 262.5,-313.5"/>
<text text-anchor="middle" x="223" y="-293.5" font-family="Helvetica,sans-Serif" font-size="10.00">Azure DNS zone</text>
<text text-anchor="middle" x="223" y="-282.5" font-family="Helvetica,sans-Serif" font-size="10.00">biroltilki.art</text>
</g>
<!-- azdns&#45;&gt;aks -->
<g id="edge15" class="edge">
<title>azdns&#45;&gt;aks</title>
<path fill="none" stroke="#000000" stroke-dasharray="5,2" d="M242.39,-259.03C249.09,-250.15 257.15,-240.98 266,-234 274.54,-227.27 284.23,-221.3 294.14,-216.08"/>
<polygon fill="#000000" stroke="#000000" points="239.4,-257.2 236.42,-267.37 245.09,-261.28 239.4,-257.2"/>
<text text-anchor="middle" x="314.5" y="-236.8" font-family="Helvetica,sans-Serif" font-size="9.00">resolves *.boutique...</text>
</g>
<!-- la -->
<g id="node6" class="node">
<title>la</title>
<path fill="#cfe6ff" stroke="black" d="M196,-81C196,-81 110,-81 110,-81 104,-81 98,-75 98,-69 98,-69 98,-47 98,-47 98,-41 104,-35 110,-35 110,-35 196,-35 196,-35 202,-35 208,-41 208,-47 208,-47 208,-69 208,-69 208,-75 202,-81 196,-81"/>
<text text-anchor="middle" x="153" y="-61" font-family="Helvetica,sans-Serif" font-size="10.00">Log Analytics</text>
<text text-anchor="middle" x="153" y="-50" font-family="Helvetica,sans-Serif" font-size="10.00">log&#45;boutique&#45;weu</text>
</g>
<!-- aks&#45;&gt;la -->
<g id="edge14" class="edge">
<title>aks&#45;&gt;la</title>
<path fill="none" stroke="#000000" stroke-dasharray="5,2" d="M276.41,-158.98C254.58,-149.73 232.31,-137.87 214,-123 201.42,-112.77 188.84,-100.09 178.4,-88.72"/>
<polygon fill="#000000" stroke="#000000" points="180.83,-86.19 171.54,-81.1 175.63,-90.88 180.83,-86.19"/>
<text text-anchor="middle" x="281.5" y="-133.8" font-family="Helvetica,sans-Serif" font-size="9.00">Container Insights</text>
</g>
<!-- sysp -->
<g id="node8" class="node">
<title>sysp</title>
<path fill="#e8f5d8" stroke="black" d="M543.5,-81C543.5,-81 476.5,-81 476.5,-81 470.5,-81 464.5,-75 464.5,-69 464.5,-69 464.5,-47 464.5,-47 464.5,-41 470.5,-35 476.5,-35 476.5,-35 543.5,-35 543.5,-35 549.5,-35 555.5,-41 555.5,-47 555.5,-47 555.5,-69 555.5,-69 555.5,-75 549.5,-81 543.5,-81"/>
<text text-anchor="middle" x="510" y="-61" font-family="Helvetica,sans-Serif" font-size="10.00">system</text>
<text text-anchor="middle" x="510" y="-50" font-family="Helvetica,sans-Serif" font-size="10.00">D2s_v5 × 2&#45;3</text>
</g>
<!-- aks&#45;&gt;sysp -->
<g id="edge1" class="edge">
<title>aks&#45;&gt;sysp</title>
<path fill="none" stroke="#000000" d="M409.76,-158.7C424.67,-148.22 441.13,-135.74 455,-123 468.92,-110.22 482.78,-94.06 493.1,-81.19"/>
</g>
<!-- ndev -->
<g id="node9" class="node">
<title>ndev</title>
<path fill="#e8f5d8" stroke="black" d="M656,-86.5C656,-86.5 586,-86.5 586,-86.5 580,-86.5 574,-80.5 574,-74.5 574,-74.5 574,-41.5 574,-41.5 574,-35.5 580,-29.5 586,-29.5 586,-29.5 656,-29.5 656,-29.5 662,-29.5 668,-35.5 668,-41.5 668,-41.5 668,-74.5 668,-74.5 668,-80.5 662,-86.5 656,-86.5"/>
<text text-anchor="middle" x="621" y="-66.5" font-family="Helvetica,sans-Serif" font-size="10.00">npdev</text>
<text text-anchor="middle" x="621" y="-55.5" font-family="Helvetica,sans-Serif" font-size="10.00">B2s × 1&#45;3</text>
<text text-anchor="middle" x="621" y="-44.5" font-family="Helvetica,sans-Serif" font-size="10.00">taint env=dev</text>
</g>
<!-- aks&#45;&gt;ndev -->
<g id="edge2" class="edge">
<title>aks&#45;&gt;ndev</title>
<path fill="none" stroke="#000000" d="M482.01,-161.15C510.52,-151.83 540.04,-139.4 565,-123 579.44,-113.52 592.38,-99.33 602.17,-86.73"/>
</g>
<!-- nstg -->
<g id="node10" class="node">
<title>nstg</title>
<path fill="#e8f5d8" stroke="black" d="M317.5,-86.5C317.5,-86.5 238.5,-86.5 238.5,-86.5 232.5,-86.5 226.5,-80.5 226.5,-74.5 226.5,-74.5 226.5,-41.5 226.5,-41.5 226.5,-35.5 232.5,-29.5 238.5,-29.5 238.5,-29.5 317.5,-29.5 317.5,-29.5 323.5,-29.5 329.5,-35.5 329.5,-41.5 329.5,-41.5 329.5,-74.5 329.5,-74.5 329.5,-80.5 323.5,-86.5 317.5,-86.5"/>
<text text-anchor="middle" x="278" y="-66.5" font-family="Helvetica,sans-Serif" font-size="10.00">npstg</text>
<text text-anchor="middle" x="278" y="-55.5" font-family="Helvetica,sans-Serif" font-size="10.00">D2s_v5 × 1&#45;3</text>
<text text-anchor="middle" x="278" y="-44.5" font-family="Helvetica,sans-Serif" font-size="10.00">taint env=stage</text>
</g>
<!-- aks&#45;&gt;nstg -->
<g id="edge3" class="edge">
<title>aks&#45;&gt;nstg</title>
<path fill="none" stroke="#000000" d="M347.69,-158.83C332.76,-137.45 312.2,-107.98 297.28,-86.61"/>
</g>
<!-- nprod -->
<g id="node11" class="node">
<title>nprod</title>
<path fill="#e8f5d8" stroke="black" d="M434,-92C434,-92 360,-92 360,-92 354,-92 348,-86 348,-80 348,-80 348,-36 348,-36 348,-30 354,-24 360,-24 360,-24 434,-24 434,-24 440,-24 446,-30 446,-36 446,-36 446,-80 446,-80 446,-86 440,-92 434,-92"/>
<text text-anchor="middle" x="397" y="-72" font-family="Helvetica,sans-Serif" font-size="10.00">npprod</text>
<text text-anchor="middle" x="397" y="-61" font-family="Helvetica,sans-Serif" font-size="10.00">D2s_v5 × 2&#45;4</text>
<text text-anchor="middle" x="397" y="-50" font-family="Helvetica,sans-Serif" font-size="10.00">zones 1/2/3</text>
<text text-anchor="middle" x="397" y="-39" font-family="Helvetica,sans-Serif" font-size="10.00">taint env=prod</text>
</g>
<!-- aks&#45;&gt;nprod -->
<g id="edge4" class="edge">
<title>aks&#45;&gt;nprod</title>
<path fill="none" stroke="#000000" d="M373.51,-158.83C378.13,-139.21 384.35,-112.77 389.23,-92.04"/>
</g>
<!-- acrd -->
<g id="node12" class="node">
<title>acrd</title>
<path fill="#cfe6ff" stroke="black" d="M300.5,-457.4C300.5,-461.35 273.39,-464.56 240,-464.56 206.62,-464.56 179.5,-461.35 179.5,-457.4 179.5,-457.4 179.5,-392.97 179.5,-392.97 179.5,-389.02 206.62,-385.81 240,-385.81 273.39,-385.81 300.5,-389.02 300.5,-392.97 300.5,-392.97 300.5,-457.4 300.5,-457.4"/>
<path fill="none" stroke="black" d="M300.5,-457.4C300.5,-453.45 273.39,-450.24 240,-450.24 206.62,-450.24 179.5,-453.45 179.5,-457.4"/>
<text text-anchor="middle" x="240" y="-433.69" font-family="Helvetica,sans-Serif" font-size="10.00">ACR dev</text>
<text text-anchor="middle" x="240" y="-422.69" font-family="Helvetica,sans-Serif" font-size="10.00">acrboutiquedevweu</text>
<text text-anchor="middle" x="240" y="-411.69" font-family="Helvetica,sans-Serif" font-size="10.00">+ private endpoint</text>
</g>
<!-- acrd&#45;&gt;vnet -->
<g id="edge5" class="edge">
<title>acrd&#45;&gt;vnet</title>
<path fill="none" stroke="#000000" stroke-dasharray="5,2" d="M292.22,-388.03C299.02,-384.26 306.05,-380.8 313,-378 371.07,-354.66 393.02,-373.55 451,-350 466.86,-343.56 482.95,-334.3 497.1,-325.04"/>
<polygon fill="#000000" stroke="#000000" points="499.3,-327.78 505.65,-319.29 495.4,-321.97 499.3,-327.78"/>
<text text-anchor="middle" x="431" y="-360.8" font-family="Helvetica,sans-Serif" font-size="9.00">PE</text>
</g>
<!-- kvd -->
<g id="node13" class="node">
<title>kvd</title>
<path fill="#e2d6ff" stroke="black" d="M149.5,-453.69C149.5,-453.69 44.5,-453.69 44.5,-453.69 38.5,-453.69 32.5,-447.69 32.5,-441.69 32.5,-441.69 32.5,-408.69 32.5,-408.69 32.5,-402.69 38.5,-396.69 44.5,-396.69 44.5,-396.69 149.5,-396.69 149.5,-396.69 155.5,-396.69 161.5,-402.69 161.5,-408.69 161.5,-408.69 161.5,-441.69 161.5,-441.69 161.5,-447.69 155.5,-453.69 149.5,-453.69"/>
<text text-anchor="middle" x="97" y="-433.69" font-family="Helvetica,sans-Serif" font-size="10.00">Key Vault dev</text>
<text text-anchor="middle" x="97" y="-422.69" font-family="Helvetica,sans-Serif" font-size="10.00">kv&#45;boutique&#45;dev&#45;weu</text>
<text text-anchor="middle" x="97" y="-411.69" font-family="Helvetica,sans-Serif" font-size="10.00">+ private endpoint</text>
</g>
<!-- kvd&#45;&gt;vnet -->
<g id="edge8" class="edge">
<title>kvd&#45;&gt;vnet</title>
<path fill="none" stroke="#000000" stroke-dasharray="5,2" d="M133.63,-396.62C144.79,-389.46 157.44,-382.5 170,-378 237.46,-353.81 258.66,-364.81 330,-358 356.83,-355.44 425.41,-358.44 451,-350 468.15,-344.34 485.25,-334.69 499.92,-324.83"/>
<polygon fill="#000000" stroke="#000000" points="502.05,-327.61 508.26,-319.03 498.05,-321.87 502.05,-327.61"/>
<text text-anchor="middle" x="336" y="-360.8" font-family="Helvetica,sans-Serif" font-size="9.00">PE</text>
</g>
<!-- acrs -->
<g id="node14" class="node">
<title>acrs</title>
<path fill="#cfe6ff" stroke="black" d="M455,-457.4C455,-461.35 425.87,-464.56 390,-464.56 354.14,-464.56 325,-461.35 325,-457.4 325,-457.4 325,-392.97 325,-392.97 325,-389.02 354.14,-385.81 390,-385.81 425.87,-385.81 455,-389.02 455,-392.97 455,-392.97 455,-457.4 455,-457.4"/>
<path fill="none" stroke="black" d="M455,-457.4C455,-453.45 425.87,-450.24 390,-450.24 354.14,-450.24 325,-453.45 325,-457.4"/>
<text text-anchor="middle" x="390" y="-433.69" font-family="Helvetica,sans-Serif" font-size="10.00">ACR stage</text>
<text text-anchor="middle" x="390" y="-422.69" font-family="Helvetica,sans-Serif" font-size="10.00">acrboutiquestageweu</text>
<text text-anchor="middle" x="390" y="-411.69" font-family="Helvetica,sans-Serif" font-size="10.00">+ private endpoint</text>
</g>
<!-- acrs&#45;&gt;vnet -->
<g id="edge6" class="edge">
<title>acrs&#45;&gt;vnet</title>
<path fill="none" stroke="#000000" stroke-dasharray="5,2" d="M433.16,-386.52C455.04,-367.41 481.43,-344.38 502.74,-325.77"/>
<polygon fill="#000000" stroke="#000000" points="505.12,-328.35 510.35,-319.13 500.51,-323.07 505.12,-328.35"/>
<text text-anchor="middle" x="467" y="-360.8" font-family="Helvetica,sans-Serif" font-size="9.00">PE</text>
</g>
<!-- kvs -->
<g id="node15" class="node">
<title>kvs</title>
<path fill="#e2d6ff" stroke="black" d="M599,-453.69C599,-453.69 485,-453.69 485,-453.69 479,-453.69 473,-447.69 473,-441.69 473,-441.69 473,-408.69 473,-408.69 473,-402.69 479,-396.69 485,-396.69 485,-396.69 599,-396.69 599,-396.69 605,-396.69 611,-402.69 611,-408.69 611,-408.69 611,-441.69 611,-441.69 611,-447.69 605,-453.69 599,-453.69"/>
<text text-anchor="middle" x="542" y="-433.69" font-family="Helvetica,sans-Serif" font-size="10.00">Key Vault stage</text>
<text text-anchor="middle" x="542" y="-422.69" font-family="Helvetica,sans-Serif" font-size="10.00">kv&#45;boutique&#45;stage&#45;weu</text>
<text text-anchor="middle" x="542" y="-411.69" font-family="Helvetica,sans-Serif" font-size="10.00">+ private endpoint</text>
</g>
<!-- kvs&#45;&gt;vnet -->
<g id="edge9" class="edge">
<title>kvs&#45;&gt;vnet</title>
<path fill="none" stroke="#000000" stroke-dasharray="5,2" d="M542,-396.37C542,-376.91 542,-350.68 542,-329.32"/>
<polygon fill="#000000" stroke="#000000" points="545.5,-329.28 542,-319.28 538.5,-329.28 545.5,-329.28"/>
<text text-anchor="middle" x="548" y="-360.8" font-family="Helvetica,sans-Serif" font-size="9.00">PE</text>
</g>
<!-- acrp -->
<g id="node16" class="node">
<title>acrp</title>
<path fill="#cfe6ff" stroke="black" d="M759,-457.4C759,-461.35 731.22,-464.56 697,-464.56 662.79,-464.56 635,-461.35 635,-457.4 635,-457.4 635,-392.97 635,-392.97 635,-389.02 662.79,-385.81 697,-385.81 731.22,-385.81 759,-389.02 759,-392.97 759,-392.97 759,-457.4 759,-457.4"/>
<path fill="none" stroke="black" d="M759,-457.4C759,-453.45 731.22,-450.24 697,-450.24 662.79,-450.24 635,-453.45 635,-457.4"/>
<text text-anchor="middle" x="697" y="-433.69" font-family="Helvetica,sans-Serif" font-size="10.00">ACR prod</text>
<text text-anchor="middle" x="697" y="-422.69" font-family="Helvetica,sans-Serif" font-size="10.00">acrboutiqueprodweu</text>
<text text-anchor="middle" x="697" y="-411.69" font-family="Helvetica,sans-Serif" font-size="10.00">+ private endpoint</text>
</g>
<!-- acrp&#45;&gt;vnet -->
<g id="edge7" class="edge">
<title>acrp&#45;&gt;vnet</title>
<path fill="none" stroke="#000000" stroke-dasharray="5,2" d="M653.42,-386.87C631.09,-367.76 604.08,-344.64 582.25,-325.95"/>
<polygon fill="#000000" stroke="#000000" points="584.33,-323.12 574.46,-319.28 579.78,-328.44 584.33,-323.12"/>
<text text-anchor="middle" x="634" y="-360.8" font-family="Helvetica,sans-Serif" font-size="9.00">PE</text>
</g>
<!-- kvp -->
<g id="node17" class="node">
<title>kvp</title>
<path fill="#e2d6ff" stroke="black" d="M898.5,-453.69C898.5,-453.69 789.5,-453.69 789.5,-453.69 783.5,-453.69 777.5,-447.69 777.5,-441.69 777.5,-441.69 777.5,-408.69 777.5,-408.69 777.5,-402.69 783.5,-396.69 789.5,-396.69 789.5,-396.69 898.5,-396.69 898.5,-396.69 904.5,-396.69 910.5,-402.69 910.5,-408.69 910.5,-408.69 910.5,-441.69 910.5,-441.69 910.5,-447.69 904.5,-453.69 898.5,-453.69"/>
<text text-anchor="middle" x="844" y="-433.69" font-family="Helvetica,sans-Serif" font-size="10.00">Key Vault prod</text>
<text text-anchor="middle" x="844" y="-422.69" font-family="Helvetica,sans-Serif" font-size="10.00">kv&#45;boutique&#45;prod&#45;weu</text>
<text text-anchor="middle" x="844" y="-411.69" font-family="Helvetica,sans-Serif" font-size="10.00">purge protection ON</text>
</g>
<!-- kvp&#45;&gt;vnet -->
<g id="edge10" class="edge">
<title>kvp&#45;&gt;vnet</title>
<path fill="none" stroke="#000000" stroke-dasharray="5,2" d="M801.76,-396.66C790.97,-390.15 779.23,-383.51 768,-378 725.13,-356.98 675.79,-337.58 634.16,-322.5"/>
<polygon fill="#000000" stroke="#000000" points="635.18,-319.14 624.58,-319.05 632.81,-325.73 635.18,-319.14"/>
<text text-anchor="middle" x="750" y="-360.8" font-family="Helvetica,sans-Serif" font-size="9.00">PE</text>
</g>
<!-- aad -->
<g id="node18" class="node">
<title>aad</title>
<polygon fill="#e2d6ff" stroke="black" points="654.5,-599.06 423.5,-599.06 423.5,-542.06 660.5,-542.06 660.5,-593.06 654.5,-599.06"/>
<polyline fill="none" stroke="black" points="654.5,-599.06 654.5,-593.06 "/>
<polyline fill="none" stroke="black" points="660.5,-593.06 654.5,-593.06 "/>
<text text-anchor="middle" x="542" y="-579.06" font-family="Helvetica,sans-Serif" font-size="10.00">Azure AD (Entra)</text>
<text text-anchor="middle" x="542" y="-568.06" font-family="Helvetica,sans-Serif" font-size="10.00">UAMIs (kubelet, per&#45;env, cert&#45;mgr, ext&#45;dns)</text>
<text text-anchor="middle" x="542" y="-557.06" font-family="Helvetica,sans-Serif" font-size="10.00">AAD groups (g&#45;boutique&#45;*)</text>
</g>
<!-- aad&#45;&gt;aks -->
<g id="edge16" class="edge">
<title>aad&#45;&gt;aks</title>
<path fill="none" stroke="#000000" stroke-dasharray="1,5" d="M660.51,-562.6C759.68,-554.01 890.11,-535.29 923,-495.38 956.18,-455.12 951.12,-421.94 923,-378 812.71,-205.62 693.22,-253.31 492,-216 491.9,-215.98 491.8,-215.96 491.7,-215.94"/>
<polygon fill="#000000" stroke="#000000" points="492.53,-212.54 482.05,-214.11 491.23,-219.42 492.53,-212.54"/>
<text text-anchor="middle" x="961" y="-360.8" font-family="Helvetica,sans-Serif" font-size="9.00">federated WI / RBAC</text>
</g>
<!-- aad&#45;&gt;acrd -->
<g id="edge20" class="edge">
<title>aad&#45;&gt;acrd</title>
<path fill="none" stroke="#000000" stroke-dasharray="1,5" d="M423.24,-542.05C386.42,-530.68 346.69,-515.38 313,-495.38 301.99,-488.83 291.29,-480.35 281.63,-471.59"/>
<polygon fill="#000000" stroke="#000000" points="283.8,-468.83 274.12,-464.53 279.01,-473.93 283.8,-468.83"/>
<text text-anchor="middle" x="368" y="-506.18" font-family="Helvetica,sans-Serif" font-size="9.00">role: AcrPull</text>
</g>
<!-- aad&#45;&gt;kvd -->
<g id="edge17" class="edge">
<title>aad&#45;&gt;kvd</title>
<path fill="none" stroke="#000000" stroke-dasharray="1,5" d="M423.3,-545.18C385.27,-537.73 342.94,-529.81 304,-523.38 271.7,-518.03 263.02,-520.25 231,-513.38 203.37,-507.44 194.5,-509.49 170,-495.38 154.47,-486.42 139.65,-473.52 127.47,-461.28"/>
<polygon fill="#000000" stroke="#000000" points="129.71,-458.55 120.25,-453.78 124.67,-463.41 129.71,-458.55"/>
<text text-anchor="middle" x="278.5" y="-506.18" font-family="Helvetica,sans-Serif" font-size="9.00">role: KV Secrets User</text>
</g>
<!-- aad&#45;&gt;acrs -->
<g id="edge21" class="edge">
<title>aad&#45;&gt;acrs</title>
<path fill="none" stroke="#000000" stroke-dasharray="1,5" d="M512.7,-541.92C491.51,-521.93 462.42,-494.49 437.88,-471.35"/>
<polygon fill="#000000" stroke="#000000" points="440.1,-468.63 430.43,-464.32 435.3,-473.72 440.1,-468.63"/>
</g>
<!-- aad&#45;&gt;kvs -->
<g id="edge18" class="edge">
<title>aad&#45;&gt;kvs</title>
<path fill="none" stroke="#000000" stroke-dasharray="1,5" d="M542,-541.92C542,-519.7 542,-488.28 542,-463.78"/>
<polygon fill="#000000" stroke="#000000" points="545.5,-463.75 542,-453.75 538.5,-463.75 545.5,-463.75"/>
</g>
<!-- aad&#45;&gt;acrp -->
<g id="edge22" class="edge">
<title>aad&#45;&gt;acrp</title>
<path fill="none" stroke="#000000" stroke-dasharray="1,5" d="M572.46,-541.81C587.68,-527.9 606.35,-510.79 623,-495.38 631.49,-487.52 640.5,-479.14 649.2,-471.02"/>
<polygon fill="#000000" stroke="#000000" points="651.83,-473.35 656.75,-463.97 647.05,-468.24 651.83,-473.35"/>
</g>
<!-- aad&#45;&gt;kvp -->
<g id="edge19" class="edge">
<title>aad&#45;&gt;kvp</title>
<path fill="none" stroke="#000000" stroke-dasharray="1,5" d="M657.23,-541.98C694.04,-530.53 734.02,-515.19 768,-495.38 783.85,-486.13 799.23,-473.16 811.96,-460.93"/>
<polygon fill="#000000" stroke="#000000" points="814.47,-463.37 819.13,-453.86 809.56,-458.39 814.47,-463.37"/>
</g>
</g>
</svg>
