<?xml version="1.0" encoding="UTF-8" standalone="no"?>
<!DOCTYPE svg PUBLIC "-//W3C//DTD SVG 1.1//EN"
 "http://www.w3.org/Graphics/SVG/1.1/DTD/svg11.dtd">
<!-- Generated by graphviz version 2.43.0 (0)
 -->
<!-- Title: inside_cluster Pages: 1 -->
<svg width="1215pt" height="569pt"
 viewBox="0.00 0.00 1215.00 569.25" xmlns="http://www.w3.org/2000/svg" xmlns:xlink="http://www.w3.org/1999/xlink">
<g id="graph0" class="graph" transform="scale(1 1) rotate(0) translate(4 565.25)">
<title>inside_cluster</title>
<polygon fill="white" stroke="transparent" points="-4,4 -4,-565.25 1211,-565.25 1211,4 -4,4"/>
<text text-anchor="start" x="406.5" y="-547.05" font-family="Helvetica,sans-Serif" font-weight="bold" font-size="14.00">Online Boutique on Azure — inside the AKS cluster</text>
<g id="clust1" class="cluster">
<title>cluster_external</title>
<polygon fill="#f4f4f4" stroke="black" points="495,-166 495,-291.25 967,-291.25 967,-166 495,-166"/>
<text text-anchor="middle" x="731" y="-276.05" font-family="Helvetica,sans-Serif" font-size="14.00">Outside the cluster</text>
</g>
<g id="clust2" class="cluster">
<title>cluster_platform</title>
<polygon fill="#e8f5d8" stroke="black" points="8,-174.62 8,-530.25 487,-530.25 487,-174.62 8,-174.62"/>
<text text-anchor="middle" x="247.5" y="-515.05" font-family="Helvetica,sans-Serif" font-size="14.00">Platform namespaces (in AKS)</text>
</g>
<g id="clust3" class="cluster">
<title>cluster_workloads</title>
<polygon fill="#fff2e0" stroke="black" points="352,-8 352,-138 813,-138 813,-8 352,-8"/>
<text text-anchor="middle" x="582.5" y="-122.8" font-family="Helvetica,sans-Serif" font-size="14.00">Workload namespaces</text>
</g>
<!-- user -->
<g id="node1" class="node">
<title>user</title>
<path fill="#eeeeee" stroke="black" d="M946.5,-228.62C946.5,-228.62 903.5,-228.62 903.5,-228.62 897.5,-228.62 891.5,-222.62 891.5,-216.62 891.5,-216.62 891.5,-194.62 891.5,-194.62 891.5,-188.62 897.5,-182.62 903.5,-182.62 903.5,-182.62 946.5,-182.62 946.5,-182.62 952.5,-182.62 958.5,-188.62 958.5,-194.62 958.5,-194.62 958.5,-216.62 958.5,-216.62 958.5,-222.62 952.5,-228.62 946.5,-228.62"/>
<text text-anchor="middle" x="925" y="-208.62" font-family="Helvetica,sans-Serif" font-size="10.00">End user</text>
<text text-anchor="middle" x="925" y="-197.62" font-family="Helvetica,sans-Serif" font-size="10.00">(HTTPS)</text>
</g>
<!-- nginx -->
<g id="node7" class="node">
<title>nginx</title>
<path fill="#cfe9c8" stroke="black" d="M220,-228.62C220,-228.62 138,-228.62 138,-228.62 132,-228.62 126,-222.62 126,-216.62 126,-216.62 126,-194.62 126,-194.62 126,-188.62 132,-182.62 138,-182.62 138,-182.62 220,-182.62 220,-182.62 226,-182.62 232,-188.62 232,-194.62 232,-194.62 232,-216.62 232,-216.62 232,-222.62 226,-228.62 220,-228.62"/>
<text text-anchor="middle" x="179" y="-208.62" font-family="Helvetica,sans-Serif" font-size="10.00">ingress&#45;nginx</text>
<text text-anchor="middle" x="179" y="-197.62" font-family="Helvetica,sans-Serif" font-size="10.00">L7 ingress + TLS</text>
</g>
<!-- user&#45;&gt;nginx -->
<g id="edge1" class="edge">
<title>user&#45;&gt;nginx</title>
<path fill="none" stroke="#000000" d="M919.52,-228.69C913.67,-247.58 902.37,-273.1 882,-285.25 826.27,-318.49 360.09,-304.11 298,-285.25 265.8,-275.47 234.38,-253.77 211.92,-235.49"/>
<polygon fill="#000000" stroke="#000000" points="213.98,-232.65 204.06,-228.94 209.5,-238.03 213.98,-232.65"/>
<text text-anchor="middle" x="513" y="-302.05" font-family="Helvetica,sans-Serif" font-size="9.00">HTTPS</text>
</g>
<!-- le -->
<g id="node2" class="node">
<title>le</title>
<path fill="#ffd9d9" stroke="black" d="M667,-223.62C667,-223.62 603,-223.62 603,-223.62 597,-223.62 591,-217.62 591,-211.62 591,-211.62 591,-199.62 591,-199.62 591,-193.62 597,-187.62 603,-187.62 603,-187.62 667,-187.62 667,-187.62 673,-187.62 679,-193.62 679,-199.62 679,-199.62 679,-211.62 679,-211.62 679,-217.62 673,-223.62 667,-223.62"/>
<text text-anchor="middle" x="635" y="-203.12" font-family="Helvetica,sans-Serif" font-size="10.00">Let&#39;s Encrypt</text>
</g>
<!-- azdns -->
<g id="node3" class="node">
<title>azdns</title>
<path fill="#cfe6ff" stroke="black" d="M767,-228.62C767,-228.62 709,-228.62 709,-228.62 703,-228.62 697,-222.62 697,-216.62 697,-216.62 697,-194.62 697,-194.62 697,-188.62 703,-182.62 709,-182.62 709,-182.62 767,-182.62 767,-182.62 773,-182.62 779,-188.62 779,-194.62 779,-194.62 779,-216.62 779,-216.62 779,-222.62 773,-228.62 767,-228.62"/>
<text text-anchor="middle" x="738" y="-208.62" font-family="Helvetica,sans-Serif" font-size="10.00">Azure DNS</text>
<text text-anchor="middle" x="738" y="-197.62" font-family="Helvetica,sans-Serif" font-size="10.00">biroltilki.art</text>
</g>
<!-- kvs_ex -->
<g id="node4" class="node">
<title>kvs_ex</title>
<path fill="#e2d6ff" stroke="black" d="M861,-228.62C861,-228.62 809,-228.62 809,-228.62 803,-228.62 797,-222.62 797,-216.62 797,-216.62 797,-194.62 797,-194.62 797,-188.62 803,-182.62 809,-182.62 809,-182.62 861,-182.62 861,-182.62 867,-182.62 873,-188.62 873,-194.62 873,-194.62 873,-216.62 873,-216.62 873,-222.62 867,-228.62 861,-228.62"/>
<text text-anchor="middle" x="835" y="-208.62" font-family="Helvetica,sans-Serif" font-size="10.00">Key Vaults</text>
<text text-anchor="middle" x="835" y="-197.62" font-family="Helvetica,sans-Serif" font-size="10.00">(per env)</text>
</g>
<!-- acrs_ex -->
<g id="node5" class="node">
<title>acrs_ex</title>
<path fill="#cfe6ff" stroke="black" d="M572.5,-231.6C572.5,-234.79 557.04,-237.38 538,-237.38 518.96,-237.38 503.5,-234.79 503.5,-231.6 503.5,-231.6 503.5,-179.65 503.5,-179.65 503.5,-176.46 518.96,-173.87 538,-173.87 557.04,-173.87 572.5,-176.46 572.5,-179.65 572.5,-179.65 572.5,-231.6 572.5,-231.6"/>
<path fill="none" stroke="black" d="M572.5,-231.6C572.5,-228.42 557.04,-225.83 538,-225.83 518.96,-225.83 503.5,-228.42 503.5,-231.6"/>
<text text-anchor="middle" x="538" y="-208.62" font-family="Helvetica,sans-Serif" font-size="10.00">ACRs</text>
<text text-anchor="middle" x="538" y="-197.62" font-family="Helvetica,sans-Serif" font-size="10.00">(per env)</text>
</g>
<!-- nsd -->
<g id="node12" class="node">
<title>nsd</title>
<path fill="#fde0c0" stroke="black" d="M474,-84C474,-84 372,-84 372,-84 366,-84 360,-78 360,-72 360,-72 360,-28 360,-28 360,-22 366,-16 372,-16 372,-16 474,-16 474,-16 480,-16 486,-22 486,-28 486,-28 486,-72 486,-72 486,-78 480,-84 474,-84"/>
<text text-anchor="middle" x="423" y="-64" font-family="Helvetica,sans-Serif" font-size="10.00">ns: dev</text>
<text text-anchor="middle" x="423" y="-53" font-family="Helvetica,sans-Serif" font-size="10.00">11 boutique services</text>
<text text-anchor="middle" x="423" y="-42" font-family="Helvetica,sans-Serif" font-size="10.00">+ redis&#45;cart</text>
<text text-anchor="middle" x="423" y="-31" font-family="Helvetica,sans-Serif" font-size="10.00">+ loadgenerator</text>
</g>
<!-- acrs_ex&#45;&gt;nsd -->
<g id="edge23" class="edge">
<title>acrs_ex&#45;&gt;nsd</title>
<path fill="none" stroke="#000000" stroke-dasharray="5,2" d="M503.29,-176.3C496.5,-169.98 489.73,-163.05 484,-156 468.44,-136.84 454.36,-113.25 443.65,-93.28"/>
<polygon fill="#000000" stroke="#000000" points="446.73,-91.61 438.98,-84.39 440.53,-94.87 446.73,-91.61"/>
<text text-anchor="middle" x="516.5" y="-148.8" font-family="Helvetica,sans-Serif" font-size="9.00">pull (dev ACR)</text>
</g>
<!-- nss -->
<g id="node13" class="node">
<title>nss</title>
<path fill="#fde0c0" stroke="black" d="M633.5,-78.5C633.5,-78.5 516.5,-78.5 516.5,-78.5 510.5,-78.5 504.5,-72.5 504.5,-66.5 504.5,-66.5 504.5,-33.5 504.5,-33.5 504.5,-27.5 510.5,-21.5 516.5,-21.5 516.5,-21.5 633.5,-21.5 633.5,-21.5 639.5,-21.5 645.5,-27.5 645.5,-33.5 645.5,-33.5 645.5,-66.5 645.5,-66.5 645.5,-72.5 639.5,-78.5 633.5,-78.5"/>
<text text-anchor="middle" x="575" y="-58.5" font-family="Helvetica,sans-Serif" font-size="10.00">ns: stage</text>
<text text-anchor="middle" x="575" y="-47.5" font-family="Helvetica,sans-Serif" font-size="10.00">11 services + redis&#45;cart</text>
<text text-anchor="middle" x="575" y="-36.5" font-family="Helvetica,sans-Serif" font-size="10.00">+ loadgenerator</text>
</g>
<!-- acrs_ex&#45;&gt;nss -->
<g id="edge24" class="edge">
<title>acrs_ex&#45;&gt;nss</title>
<path fill="none" stroke="#000000" stroke-dasharray="5,2" d="M547.96,-173.88C549.73,-167.97 551.5,-161.82 553,-156 558.71,-133.89 564,-108.87 567.96,-88.8"/>
<polygon fill="#000000" stroke="#000000" points="571.43,-89.28 569.9,-78.8 564.56,-87.95 571.43,-89.28"/>
<text text-anchor="middle" x="591.5" y="-148.8" font-family="Helvetica,sans-Serif" font-size="9.00">pull (stage ACR)</text>
</g>
<!-- nsp -->
<g id="node14" class="node">
<title>nsp</title>
<path fill="#fde0c0" stroke="black" d="M792.5,-78.5C792.5,-78.5 675.5,-78.5 675.5,-78.5 669.5,-78.5 663.5,-72.5 663.5,-66.5 663.5,-66.5 663.5,-33.5 663.5,-33.5 663.5,-27.5 669.5,-21.5 675.5,-21.5 675.5,-21.5 792.5,-21.5 792.5,-21.5 798.5,-21.5 804.5,-27.5 804.5,-33.5 804.5,-33.5 804.5,-66.5 804.5,-66.5 804.5,-72.5 798.5,-78.5 792.5,-78.5"/>
<text text-anchor="middle" x="734" y="-58.5" font-family="Helvetica,sans-Serif" font-size="10.00">ns: prod</text>
<text text-anchor="middle" x="734" y="-47.5" font-family="Helvetica,sans-Serif" font-size="10.00">11 services + redis&#45;cart</text>
<text text-anchor="middle" x="734" y="-36.5" font-family="Helvetica,sans-Serif" font-size="10.00">(loadgen disabled)</text>
</g>
<!-- acrs_ex&#45;&gt;nsp -->
<g id="edge25" class="edge">
<title>acrs_ex&#45;&gt;nsp</title>
<path fill="none" stroke="#000000" stroke-dasharray="5,2" d="M567.26,-175.35C571.92,-171.79 576.9,-168.52 582,-166 602.32,-155.96 611.41,-165.46 632,-156 664.23,-141.19 691.63,-111.33 709.89,-87.22"/>
<polygon fill="#000000" stroke="#000000" points="712.85,-89.1 715.96,-78.97 707.21,-84.95 712.85,-89.1"/>
<text text-anchor="middle" x="684" y="-148.8" font-family="Helvetica,sans-Serif" font-size="9.00">pull (prod ACR)</text>
</g>
<!-- argo -->
<g id="node6" class="node">
<title>argo</title>
<path fill="#cfe9c8" stroke="black" d="M340.5,-476.25C340.5,-476.25 257.5,-476.25 257.5,-476.25 251.5,-476.25 245.5,-470.25 245.5,-464.25 245.5,-464.25 245.5,-442.25 245.5,-442.25 245.5,-436.25 251.5,-430.25 257.5,-430.25 257.5,-430.25 340.5,-430.25 340.5,-430.25 346.5,-430.25 352.5,-436.25 352.5,-442.25 352.5,-442.25 352.5,-464.25 352.5,-464.25 352.5,-470.25 346.5,-476.25 340.5,-476.25"/>
<text text-anchor="middle" x="299" y="-456.25" font-family="Helvetica,sans-Serif" font-size="10.00">argocd</text>
<text text-anchor="middle" x="299" y="-445.25" font-family="Helvetica,sans-Serif" font-size="10.00">GitOps controller</text>
</g>
<!-- argo&#45;&gt;nginx -->
<g id="edge8" class="edge">
<title>argo&#45;&gt;nginx</title>
<path fill="none" stroke="#000000" d="M245.41,-445.67C177.84,-436.15 67.49,-416.1 43,-384.25 2.21,-331.21 77.92,-269.11 131.79,-234.17"/>
<polygon fill="#000000" stroke="#000000" points="133.67,-237.12 140.23,-228.8 129.92,-231.22 133.67,-237.12"/>
<text text-anchor="middle" x="55.5" y="-353.55" font-family="Helvetica,sans-Serif" font-size="9.00">apply</text>
</g>
<!-- cm -->
<g id="node8" class="node">
<title>cm</title>
<path fill="#cfe9c8" stroke="black" d="M312.5,-378.75C312.5,-378.75 243.5,-378.75 243.5,-378.75 237.5,-378.75 231.5,-372.75 231.5,-366.75 231.5,-366.75 231.5,-344.75 231.5,-344.75 231.5,-338.75 237.5,-332.75 243.5,-332.75 243.5,-332.75 312.5,-332.75 312.5,-332.75 318.5,-332.75 324.5,-338.75 324.5,-344.75 324.5,-344.75 324.5,-366.75 324.5,-366.75 324.5,-372.75 318.5,-378.75 312.5,-378.75"/>
<text text-anchor="middle" x="278" y="-358.75" font-family="Helvetica,sans-Serif" font-size="10.00">cert&#45;manager</text>
<text text-anchor="middle" x="278" y="-347.75" font-family="Helvetica,sans-Serif" font-size="10.00">ACME DNS&#45;01</text>
</g>
<!-- argo&#45;&gt;cm -->
<g id="edge9" class="edge">
<title>argo&#45;&gt;cm</title>
<path fill="none" stroke="#000000" d="M294.13,-430.1C291.43,-417.81 288.02,-402.3 285.03,-388.71"/>
<polygon fill="#000000" stroke="#000000" points="288.41,-387.79 282.84,-378.78 281.57,-389.3 288.41,-387.79"/>
<text text-anchor="middle" x="302.5" y="-405.05" font-family="Helvetica,sans-Serif" font-size="9.00">apply</text>
</g>
<!-- edns -->
<g id="node9" class="node">
<title>edns</title>
<path fill="#cfe9c8" stroke="black" d="M467,-378.75C467,-378.75 355,-378.75 355,-378.75 349,-378.75 343,-372.75 343,-366.75 343,-366.75 343,-344.75 343,-344.75 343,-338.75 349,-332.75 355,-332.75 355,-332.75 467,-332.75 467,-332.75 473,-332.75 479,-338.75 479,-344.75 479,-344.75 479,-366.75 479,-366.75 479,-372.75 473,-378.75 467,-378.75"/>
<text text-anchor="middle" x="411" y="-358.75" font-family="Helvetica,sans-Serif" font-size="10.00">external&#45;dns</text>
<text text-anchor="middle" x="411" y="-347.75" font-family="Helvetica,sans-Serif" font-size="10.00">A records ↔ Azure DNS</text>
</g>
<!-- argo&#45;&gt;edns -->
<g id="edge10" class="edge">
<title>argo&#45;&gt;edns</title>
<path fill="none" stroke="#000000" d="M324.98,-430.1C340.53,-416.84 360.46,-399.84 377.22,-385.55"/>
<polygon fill="#000000" stroke="#000000" points="379.83,-387.93 385.16,-378.78 375.28,-382.6 379.83,-387.93"/>
<text text-anchor="middle" x="367.5" y="-405.05" font-family="Helvetica,sans-Serif" font-size="9.00">apply</text>
</g>
<!-- prom -->
<g id="node10" class="node">
<title>prom</title>
<path fill="#cfe9c8" stroke="black" d="M201,-384.25C201,-384.25 89,-384.25 89,-384.25 83,-384.25 77,-378.25 77,-372.25 77,-372.25 77,-339.25 77,-339.25 77,-333.25 83,-327.25 89,-327.25 89,-327.25 201,-327.25 201,-327.25 207,-327.25 213,-333.25 213,-339.25 213,-339.25 213,-372.25 213,-372.25 213,-378.25 207,-384.25 201,-384.25"/>
<text text-anchor="middle" x="145" y="-364.25" font-family="Helvetica,sans-Serif" font-size="10.00">monitoring</text>
<text text-anchor="middle" x="145" y="-353.25" font-family="Helvetica,sans-Serif" font-size="10.00">Prometheus + Grafana</text>
<text text-anchor="middle" x="145" y="-342.25" font-family="Helvetica,sans-Serif" font-size="10.00">+ Alertmanager</text>
</g>
<!-- argo&#45;&gt;prom -->
<g id="edge11" class="edge">
<title>argo&#45;&gt;prom</title>
<path fill="none" stroke="#000000" d="M263.28,-430.1C243.99,-418.14 219.8,-403.13 198.32,-389.82"/>
<polygon fill="#000000" stroke="#000000" points="199.96,-386.72 189.62,-384.42 196.27,-392.67 199.96,-386.72"/>
<text text-anchor="middle" x="244.5" y="-405.05" font-family="Helvetica,sans-Serif" font-size="9.00">apply</text>
</g>
<!-- argo&#45;&gt;nsd -->
<g id="edge12" class="edge">
<title>argo&#45;&gt;nsd</title>
<path fill="none" stroke="#000000" d="M352.71,-432.55C355.83,-431.7 358.95,-430.92 362,-430.25 567.85,-384.96 635.77,-455.88 834,-384.25 903.21,-359.24 936.55,-356.28 971,-291.25 997.06,-242.06 1008.75,-206.91 971,-166 933.51,-125.36 778.2,-149.2 723,-146 697.8,-144.54 518.68,-149.07 496,-138 475.9,-128.19 459.28,-109.99 447,-92.77"/>
<polygon fill="#000000" stroke="#000000" points="449.85,-90.73 441.33,-84.43 444.06,-94.66 449.85,-90.73"/>
<text text-anchor="middle" x="978.5" y="-302.05" font-family="Helvetica,sans-Serif" font-size="9.00">apply</text>
</g>
<!-- argo&#45;&gt;nss -->
<g id="edge13" class="edge">
<title>argo&#45;&gt;nss</title>
<path fill="none" stroke="#000000" d="M352.67,-432.35C355.8,-431.55 358.93,-430.84 362,-430.25 480.7,-407.39 795.13,-436.77 904,-384.25 950.59,-361.77 966.2,-353.49 993,-309.25 1018.91,-266.47 1054.77,-232.35 997,-166 954.57,-117.27 917.36,-151.76 853,-146 831.07,-144.04 674.98,-147.26 655,-138 631.48,-127.11 611.7,-105.78 597.69,-86.97"/>
<polygon fill="#000000" stroke="#000000" points="600.52,-84.92 591.85,-78.83 594.83,-89 600.52,-84.92"/>
<text text-anchor="middle" x="1011.5" y="-302.05" font-family="Helvetica,sans-Serif" font-size="9.00">apply</text>
</g>
<!-- argo&#45;&gt;nsp -->
<g id="edge14" class="edge">
<title>argo&#45;&gt;nsp</title>
<path fill="none" stroke="#000000" d="M352.67,-432.33C355.8,-431.54 358.93,-430.83 362,-430.25 492.07,-405.57 840.24,-448.49 956,-384.25 996.4,-361.83 1010.75,-352.12 1028,-309.25 1035.53,-290.53 1124.97,-309.03 1026,-166 978.57,-97.46 883.56,-69.77 814.77,-58.58"/>
<polygon fill="#000000" stroke="#000000" points="815.23,-55.11 804.82,-57.05 814.17,-62.03 815.23,-55.11"/>
<text text-anchor="middle" x="1055.5" y="-302.05" font-family="Helvetica,sans-Serif" font-size="9.00">apply</text>
</g>
<!-- nginx&#45;&gt;nsd -->
<g id="edge4" class="edge">
<title>nginx&#45;&gt;nsd</title>
<path fill="none" stroke="#000000" stroke-dasharray="1,5" d="M125.93,-190.29C99.23,-180.36 75.34,-165.42 90,-146 121.25,-104.59 261.73,-75.83 349.95,-61.49"/>
<polygon fill="#000000" stroke="#000000" points="350.58,-64.94 359.91,-59.9 349.48,-58.02 350.58,-64.94"/>
<text text-anchor="middle" x="123.5" y="-148.8" font-family="Helvetica,sans-Serif" font-size="9.00">frontend route</text>
</g>
<!-- nginx&#45;&gt;nss -->
<g id="edge3" class="edge">
<title>nginx&#45;&gt;nss</title>
<path fill="none" stroke="#000000" stroke-dasharray="1,5" d="M172.67,-182.54C170.57,-170.14 170.75,-155.32 180,-146 192.33,-133.57 479.06,-145.24 495,-138 518.76,-127.21 538.66,-105.67 552.66,-86.72"/>
<polygon fill="#000000" stroke="#000000" points="555.55,-88.7 558.49,-78.52 549.84,-84.65 555.55,-88.7"/>
<text text-anchor="middle" x="213.5" y="-148.8" font-family="Helvetica,sans-Serif" font-size="9.00">frontend route</text>
</g>
<!-- nginx&#45;&gt;nsp -->
<g id="edge2" class="edge">
<title>nginx&#45;&gt;nsp</title>
<path fill="none" stroke="#000000" d="M232.13,-186.71C252.63,-179.97 276.34,-172.4 298,-166 331.08,-156.23 338.86,-150.97 373,-146 404.02,-141.49 626.52,-151.09 655,-138 678.31,-127.28 697.78,-106.1 711.56,-87.33"/>
<polygon fill="#000000" stroke="#000000" points="714.59,-89.11 717.48,-78.91 708.86,-85.08 714.59,-89.11"/>
<text text-anchor="middle" x="406.5" y="-148.8" font-family="Helvetica,sans-Serif" font-size="9.00">frontend route</text>
</g>
<!-- cm&#45;&gt;le -->
<g id="edge6" class="edge">
<title>cm&#45;&gt;le</title>
<path fill="none" stroke="#000000" stroke-dasharray="5,2" d="M328.22,-329.04C330.15,-328.39 332.08,-327.79 334,-327.25 441.24,-297.16 495.28,-361.15 582,-291.25 601.08,-275.87 615.25,-251.67 624.11,-233.09"/>
<polygon fill="#000000" stroke="#000000" points="326.71,-325.87 318.61,-332.7 329.2,-332.42 326.71,-325.87"/>
<polygon fill="#000000" stroke="#000000" points="627.31,-234.5 628.26,-223.95 620.94,-231.61 627.31,-234.5"/>
<text text-anchor="middle" x="594" y="-302.05" font-family="Helvetica,sans-Serif" font-size="9.00">cert request</text>
</g>
<!-- cm&#45;&gt;azdns -->
<g id="edge5" class="edge">
<title>cm&#45;&gt;azdns</title>
<path fill="none" stroke="#000000" stroke-dasharray="5,2" d="M318.26,-332.68C323.44,-330.53 328.77,-328.64 334,-327.25 459.69,-293.95 498.95,-336.91 626,-309.25 638.1,-306.62 640.15,-302.82 652,-299.25 667.69,-294.52 674.74,-300.88 688,-291.25 706.03,-278.16 718.67,-256.42 726.73,-238.25"/>
<polygon fill="#000000" stroke="#000000" points="730.03,-239.45 730.64,-228.87 723.56,-236.75 730.03,-239.45"/>
<text text-anchor="middle" x="679.5" y="-302.05" font-family="Helvetica,sans-Serif" font-size="9.00">DNS&#45;01 TXT</text>
</g>
<!-- edns&#45;&gt;azdns -->
<g id="edge7" class="edge">
<title>edns&#45;&gt;azdns</title>
<path fill="none" stroke="#000000" d="M479.23,-352.9C557.04,-349.36 677.79,-339.09 711,-309.25 730.49,-291.74 736.66,-262.01 738.29,-239.04"/>
<polygon fill="#000000" stroke="#000000" points="741.79,-239.19 738.75,-229.04 734.79,-238.86 741.79,-239.19"/>
<text text-anchor="middle" x="755.5" y="-302.05" font-family="Helvetica,sans-Serif" font-size="9.00">create A records</text>
</g>
<!-- prom&#45;&gt;nginx -->
<g id="edge18" class="edge">
<title>prom&#45;&gt;nginx</title>
<path fill="none" stroke="#000000" stroke-dasharray="5,2" d="M153.57,-317.39C160,-289.41 168.57,-252.07 173.94,-228.68"/>
<polygon fill="#000000" stroke="#000000" points="150.14,-316.71 151.32,-327.24 156.96,-318.27 150.14,-316.71"/>
<text text-anchor="middle" x="172.5" y="-302.05" font-family="Helvetica,sans-Serif" font-size="9.00">scrape</text>
</g>
<!-- prom&#45;&gt;nsd -->
<g id="edge15" class="edge">
<title>prom&#45;&gt;nsd</title>
<path fill="none" stroke="#000000" stroke-dasharray="5,2" d="M202.49,-321.42C215.81,-312.46 229.46,-302.18 241,-291.25 291.34,-243.57 292.11,-221.25 334,-166 355.05,-138.24 379.27,-106.99 397.12,-84.08"/>
<polygon fill="#000000" stroke="#000000" points="200.25,-318.7 193.81,-327.12 204.09,-324.56 200.25,-318.7"/>
<text text-anchor="middle" x="349.5" y="-203.43" font-family="Helvetica,sans-Serif" font-size="9.00">scrape</text>
</g>
<!-- prom&#45;&gt;nss -->
<g id="edge16" class="edge">
<title>prom&#45;&gt;nss</title>
<path fill="none" stroke="#000000" stroke-dasharray="5,2" d="M223.11,-327.22C287.85,-310.73 320.1,-334.68 365,-291.25 406.63,-250.98 364.2,-210.73 401,-166 413.38,-150.96 421.44,-151.93 440,-146 463.53,-138.48 473.16,-149.54 495,-138 520.95,-124.3 542.87,-98.76 557.17,-78.88"/>
<polygon fill="#000000" stroke="#000000" points="222.01,-323.9 213.32,-329.96 223.89,-330.64 222.01,-323.9"/>
<text text-anchor="middle" x="416.5" y="-203.43" font-family="Helvetica,sans-Serif" font-size="9.00">scrape</text>
</g>
<!-- prom&#45;&gt;nsp -->
<g id="edge17" class="edge">
<title>prom&#45;&gt;nsp</title>
<path fill="none" stroke="#000000" stroke-dasharray="5,2" d="M223.09,-327.36C317.57,-308.66 368.41,-357.12 432,-291.25 478.59,-242.99 414.76,-179.28 473,-146 508.15,-125.91 618.35,-155.2 655,-138 681.78,-125.43 703.57,-99.19 717.43,-78.8"/>
<polygon fill="#000000" stroke="#000000" points="222.22,-323.97 213.2,-329.53 223.72,-330.8 222.22,-323.97"/>
<text text-anchor="middle" x="467.5" y="-203.43" font-family="Helvetica,sans-Serif" font-size="9.00">scrape</text>
</g>
<!-- csi -->
<g id="node11" class="node">
<title>csi</title>
<path fill="#cfe9c8" stroke="black" d="M467,-476.25C467,-476.25 383,-476.25 383,-476.25 377,-476.25 371,-470.25 371,-464.25 371,-464.25 371,-442.25 371,-442.25 371,-436.25 377,-430.25 383,-430.25 383,-430.25 467,-430.25 467,-430.25 473,-430.25 479,-436.25 479,-442.25 479,-442.25 479,-464.25 479,-464.25 479,-470.25 473,-476.25 467,-476.25"/>
<text text-anchor="middle" x="425" y="-456.25" font-family="Helvetica,sans-Serif" font-size="10.00">CSI Secrets Store</text>
<text text-anchor="middle" x="425" y="-445.25" font-family="Helvetica,sans-Serif" font-size="10.00">+ Azure provider</text>
</g>
<!-- csi&#45;&gt;kvs_ex -->
<g id="edge19" class="edge">
<title>csi&#45;&gt;kvs_ex</title>
<path fill="none" stroke="#000000" stroke-dasharray="5,2" d="M479.09,-445.62C559.06,-433.04 708.87,-398.47 797,-309.25 815.79,-290.23 825.4,-261.11 830.25,-238.74"/>
<polygon fill="#000000" stroke="#000000" points="833.73,-239.18 832.21,-228.69 826.86,-237.84 833.73,-239.18"/>
<text text-anchor="middle" x="802.5" y="-353.55" font-family="Helvetica,sans-Serif" font-size="9.00">fetch via WI</text>
</g>
<!-- csi&#45;&gt;nsd -->
<g id="edge20" class="edge">
<title>csi&#45;&gt;nsd</title>
<path fill="none" stroke="#000000" stroke-dasharray="5,2" d="M479.04,-452.82C627.6,-453.87 1034.02,-452.94 1077,-412.25 1110.47,-380.56 1086.33,-355.26 1089,-309.25 1093.78,-226.96 1072,-187.86 1001,-146 976.83,-131.75 521.34,-150.06 496,-138 475.65,-128.31 458.92,-109.94 446.64,-92.56"/>
<polygon fill="#000000" stroke="#000000" points="449.46,-90.48 440.96,-84.15 443.65,-94.39 449.46,-90.48"/>
<text text-anchor="middle" x="1104.5" y="-302.05" font-family="Helvetica,sans-Serif" font-size="9.00">mount</text>
</g>
<!-- csi&#45;&gt;nss -->
<g id="edge21" class="edge">
<title>csi&#45;&gt;nss</title>
<path fill="none" stroke="#000000" stroke-dasharray="5,2" d="M479.21,-452.32C629.84,-452.05 1045.7,-448.05 1095,-412.25 1105.82,-404.39 1101.99,-397 1106,-384.25 1135.43,-290.74 1143.04,-235.61 1074,-166 1056.56,-148.42 1046.29,-150.79 1022,-146 981.98,-138.12 692.17,-154.8 655,-138 631.22,-127.25 611.32,-105.71 597.32,-86.75"/>
<polygon fill="#000000" stroke="#000000" points="600.14,-84.68 591.5,-78.55 594.43,-88.73 600.14,-84.68"/>
<text text-anchor="middle" x="1141.5" y="-302.05" font-family="Helvetica,sans-Serif" font-size="9.00">mount</text>
</g>
<!-- csi&#45;&gt;nsp -->
<g id="edge22" class="edge">
<title>csi&#45;&gt;nsp</title>
<path fill="none" stroke="#000000" stroke-dasharray="5,2" d="M479.27,-452.11C632.24,-451.28 1059.24,-445.96 1112,-412.25 1204.23,-353.32 1191.86,-242.92 1114,-166 1033.66,-86.64 900.51,-61.76 815.05,-54.13"/>
<polygon fill="#000000" stroke="#000000" points="815.13,-50.62 804.87,-53.28 814.55,-57.6 815.13,-50.62"/>
<text text-anchor="middle" x="1191.5" y="-302.05" font-family="Helvetica,sans-Serif" font-size="9.00">mount</text>
</g>
</g>
</svg>
